<svg xmlns="http://www.w3.org/2000/svg" xmlns:xlink="http://www.w3.org/1999/xlink" width="500" zoomAndPan="magnify" viewBox="0 0 375 374.999991" height="500" preserveAspectRatio="xMidYMid meet" version="1.0"><defs><g/></defs><rect x="-37.5" width="450" fill="rgb(100%, 98.039246%, 91.758728%)" y="-37.499999" height="449.999989" fill-opacity="1"/><rect x="-37.5" width="450" fill="rgb(100%, 100%, 100%)" y="-37.499999" height="449.999989" fill-opacity="1"/><rect x="-37.5" width="450" fill="rgb(100%, 98.039246%, 91.758728%)" y="-37.499999" height="449.999989" fill-opacity="1"/><path stroke-linecap="butt" transform="matrix(0.000000000000002067, 33.752689, -33.749998, 0.000000000000002067, 54.056329, 37.81699)" fill="none" stroke-linejoin="miter" d="M -0.0000172877 0.0000486356 L 4.355307 0.0000486356 " stroke="rgb(96.859741%, 69.799805%, 67.83905%)" stroke-width="1" stroke-opacity="1" stroke-miterlimit="4"/><path stroke-linecap="butt" transform="matrix(33.749998, 0, 0, 33.749998, 39.349609, 167.932196)" fill="none" stroke-linejoin="miter" d="M -0.000057858 0.0000414097 L 7.222396 0.0000414097 " stroke="rgb(96.859741%, 69.799805%, 67.83905%)" stroke-width="1" stroke-opacity="1" stroke-miterlimit="4"/><path stroke-linecap="butt" transform="matrix(-33.772871, -0.000000000000004136, 0.000000000000004133, -33.749998, 338.019357, 54.586931)" fill="none" stroke-linejoin="miter" d="M -0.00000516825 0.0000294316 L 7.173143 0.0000294316 " stroke="rgb(79.998779%, 47.44873%, 45.489502%)" stroke-width="1" stroke-opacity="1" stroke-miterlimit="4"/><path stroke-linecap="butt" transform="matrix(33.739136, 0.15288, -0.152927, 33.74965, 37.183274, 219.520766)" fill="none" stroke-linejoin="miter" d="M 0.00000932355 -0.0000366392 L 8.91399 -0.0000213651 " stroke="rgb(79.998779%, 47.44873%, 45.489502%)" stroke-width="1" stroke-opacity="1" stroke-miterlimit="4"/><path stroke-linecap="butt" transform="matrix(-33.722005, -0.00000000000000413, 0.000000000000004173, -34.074072, 338.022784, 115.42511)" fill="none" stroke-linejoin="miter" d="M -0.0000193819 -0.0000196991 L 7.117111 -0.0000196991 " stroke="rgb(79.998779%, 47.44873%, 45.489502%)" stroke-width="1" stroke-opacity="1" stroke-miterlimit="4"/><path stroke-linecap="butt" transform="matrix(0.133329, 33.716285, -34.073805, 0.134743, 112.314921, 37.798152)" fill="none" stroke-linejoin="miter" d="M -0.0000376977 -0.0000437331 L 2.802994 0.0000334911 " stroke="rgb(79.998779%, 47.44873%, 45.489502%)" stroke-width="1" stroke-opacity="1" stroke-miterlimit="4"/><path stroke-linecap="butt" transform="matrix(0.000000000000002063, 33.693085, -33.796939, 0.000000000000002069, 321.640236, 98.749446)" fill="none" stroke-linejoin="miter" d="M 0.0000164569 -0.0000115046 L 4.118188 -0.0000115046 " stroke="rgb(79.998779%, 47.44873%, 45.489502%)" stroke-width="1" stroke-opacity="1" stroke-miterlimit="4"/><g fill="rgb(79.998779%, 47.44873%, 45.489502%)" fill-opacity="1"><g transform="translate(42.335551, 268.117307)"><g><path d="M 17.507812 -4.722656 L 7.792969 -4.722656 L 7.792969 -21.21875 C 7.792969 -21.996094 7.421875 -22.199219 6.816406 -22.199219 L 3.476562 -22.199219 C 2.867188 -22.199219 2.496094 -21.996094 2.496094 -21.21875 L 2.496094 -0.976562 C 2.496094 -0.371094 2.699219 0 3.476562 0 L 17.507812 0 C 18.285156 0 18.488281 -0.371094 18.488281 -0.976562 L 18.488281 -3.746094 C 18.488281 -4.351562 18.285156 -4.722656 17.507812 -4.722656 Z M 17.507812 -4.722656 "/></g></g></g><g fill="rgb(79.998779%, 47.44873%, 45.489502%)" fill-opacity="1"><g transform="translate(70.533972, 268.117307)"><g><path d="M 19.09375 -22.199219 L 15.753906 -22.199219 C 15.148438 -22.199219 14.777344 -21.996094 14.777344 -21.21875 L 14.777344 -7.523438 C 14.777344 -5.398438 13.359375 -4.183594 11.132812 -4.183594 C 8.90625 -4.183594 7.523438 -5.398438 7.523438 -7.523438 L 7.523438 -21.21875 C 7.523438 -21.996094 7.152344 -22.199219 6.542969 -22.199219 L 3.203125 -22.199219 C 2.597656 -22.199219 2.226562 -21.996094 2.226562 -21.21875 L 2.226562 -6.78125 C 2.226562 -1.484375 7.117188 0.507812 11.132812 0.507812 C 15.148438 0.507812 20.074219 -1.484375 20.074219 -6.78125 L 20.074219 -21.21875 C 20.074219 -21.996094 19.703125 -22.199219 19.09375 -22.199219 Z M 19.09375 -22.199219 "/></g></g></g><g fill="rgb(79.998779%, 47.44873%, 45.489502%)" fill-opacity="1"><g transform="translate(101.396806, 268.117307)"><g><path d="M 20.984375 -22.199219 L 16.429688 -22.199219 C 15.652344 -22.199219 15.417969 -22.128906 14.742188 -21.386719 L 7.757812 -13.695312 L 7.757812 -21.21875 C 7.757812 -21.996094 7.386719 -22.199219 6.816406 -22.199219 L 3.476562 -22.199219 C 2.832031 -22.199219 2.496094 -21.996094 2.496094 -21.21875 L 2.496094 -0.976562 C 2.496094 -0.203125 2.832031 0 3.476562 0 L 6.816406 0 C 7.386719 0 7.757812 -0.203125 7.757812 -0.976562 L 7.757812 -6.984375 L 9.851562 -9.175781 C 11.671875 -6.140625 14.675781 -1.078125 14.675781 -1.078125 C 15.113281 -0.371094 15.550781 0 16.363281 0 L 20.476562 0 C 21.117188 0 21.253906 -0.640625 20.984375 -1.078125 L 13.730469 -13.023438 L 21.320312 -21.253906 C 21.625 -21.558594 21.625 -22.199219 20.984375 -22.199219 Z M 20.984375 -22.199219 "/></g></g></g><g fill="rgb(79.998779%, 47.44873%, 45.489502%)" fill-opacity="1"><g transform="translate(132.023545, 268.117307)"><g><path d="M 18.589844 -4.722656 L 7.828125 -4.722656 L 7.828125 -9.175781 L 16.867188 -9.175781 C 17.644531 -9.175781 17.847656 -9.546875 17.847656 -10.152344 L 17.847656 -12.785156 C 17.847656 -13.394531 17.644531 -13.765625 16.867188 -13.765625 L 7.828125 -13.765625 L 7.828125 -17.441406 L 18.015625 -17.441406 C 18.789062 -17.441406 18.992188 -17.8125 18.992188 -18.417969 L 18.992188 -21.21875 C 18.992188 -21.828125 18.789062 -22.199219 18.015625 -22.199219 L 3.476562 -22.199219 C 2.699219 -22.199219 2.496094 -21.828125 2.496094 -21.21875 L 2.496094 -0.976562 C 2.496094 -0.371094 2.699219 0 3.476562 0 L 18.589844 0 C 19.363281 0 19.566406 -0.371094 19.566406 -0.976562 L 19.566406 -3.746094 C 19.566406 -4.351562 19.363281 -4.722656 18.589844 -4.722656 Z M 18.589844 -4.722656 "/></g></g></g><g fill="rgb(79.998779%, 47.44873%, 45.489502%)" fill-opacity="1"><g transform="translate(161.739673, 268.117307)"><g><path d="M 12.953125 -12.886719 C 11.605469 -13.425781 6.644531 -14.167969 6.644531 -16.226562 C 6.644531 -17.746094 8.5 -18.183594 9.613281 -18.183594 C 10.625 -18.183594 11.839844 -17.878906 12.480469 -17.273438 C 12.886719 -16.867188 13.054688 -16.597656 13.191406 -16.261719 C 13.359375 -15.820312 13.460938 -15.347656 14.101562 -15.347656 L 17.40625 -15.347656 C 18.183594 -15.347656 18.386719 -15.484375 18.386719 -16.292969 C 18.386719 -20.746094 13.695312 -22.703125 9.410156 -22.703125 C 5.195312 -22.535156 1.214844 -20.375 1.214844 -15.992188 C 1.214844 -11.707031 4.351562 -10.355469 7.757812 -9.277344 C 10.625 -8.367188 13.628906 -8.332031 13.628906 -6.445312 C 13.628906 -4.554688 12.144531 -4.148438 10.324219 -4.148438 C 9.074219 -4.148438 7.691406 -4.453125 7.015625 -5.261719 C 6.578125 -5.769531 6.410156 -6.207031 6.375 -6.644531 C 6.308594 -7.488281 5.9375 -7.589844 5.160156 -7.589844 L 1.890625 -7.589844 C 1.113281 -7.589844 0.910156 -7.421875 0.910156 -6.644531 C 0.910156 -1.921875 5.769531 0.507812 9.984375 0.507812 C 15.179688 0.507812 18.960938 -1.789062 18.960938 -6.578125 C 18.960938 -11.167969 15.382812 -12.144531 12.953125 -12.886719 Z M 12.953125 -12.886719 "/></g></g></g><g fill="rgb(79.998779%, 47.44873%, 45.489502%)" fill-opacity="1"><g transform="translate(190.713811, 268.117307)"><g><path d="M 19.632812 -22.199219 L 16.292969 -22.199219 C 15.6875 -22.199219 15.316406 -21.996094 15.316406 -21.21875 L 15.316406 -13.59375 L 7.792969 -13.59375 L 7.792969 -21.21875 C 7.792969 -21.996094 7.457031 -22.199219 6.816406 -22.199219 L 3.476562 -22.199219 C 2.867188 -22.199219 2.496094 -21.996094 2.496094 -21.21875 L 2.496094 -0.976562 C 2.496094 -0.203125 2.867188 0 3.476562 0 L 6.816406 0 C 7.457031 0 7.792969 -0.203125 7.792969 -0.976562 L 7.792969 -8.601562 L 15.316406 -8.601562 L 15.316406 -0.976562 C 15.316406 -0.203125 15.6875 0 16.292969 0 L 19.632812 0 C 20.242188 0 20.613281 -0.203125 20.613281 -0.976562 L 20.613281 -21.21875 C 20.613281 -21.996094 20.242188 -22.199219 19.632812 -22.199219 Z M 19.632812 -22.199219 "/></g></g></g><g fill="rgb(79.998779%, 47.44873%, 45.489502%)" fill-opacity="1"><g transform="translate(222.386088, 268.117307)"><g><path d="M 21.589844 -0.945312 L 14.136719 -21.152344 C 13.832031 -21.859375 13.492188 -22.199219 12.75 -22.199219 L 9.511719 -22.199219 C 8.769531 -22.199219 8.398438 -21.859375 8.128906 -21.152344 L 0.640625 -0.945312 C 0.472656 -0.539062 0.472656 0 1.214844 0 L 4.757812 0 C 5.5 0 5.769531 -0.203125 6.039062 -1.011719 L 6.984375 -3.675781 L 15.25 -3.675781 L 16.191406 -1.011719 C 16.460938 -0.203125 16.734375 0 17.476562 0 L 21.015625 0 C 21.757812 0 21.757812 -0.539062 21.589844 -0.945312 Z M 11.132812 -15.855469 L 13.664062 -8.398438 L 8.601562 -8.398438 Z M 11.132812 -15.855469 "/></g></g></g><g fill="rgb(79.998779%, 47.44873%, 45.489502%)" fill-opacity="1"><g transform="translate(253.046559, 268.117307)"><g><path d="M 17.980469 -22.199219 L 3.476562 -22.199219 C 2.699219 -22.199219 2.496094 -21.828125 2.496094 -21.21875 L 2.496094 -0.976562 C 2.496094 -0.371094 2.699219 0 3.476562 0 L 6.816406 0 C 7.589844 0 7.792969 -0.136719 7.792969 -1.011719 L 7.792969 -8.90625 L 16.5625 -8.90625 C 17.339844 -8.90625 17.542969 -9.277344 17.542969 -9.882812 L 17.542969 -12.550781 C 17.542969 -13.15625 17.339844 -13.527344 16.5625 -13.527344 L 7.792969 -13.527344 L 7.792969 -17.476562 L 17.980469 -17.476562 C 18.757812 -17.476562 18.960938 -17.847656 18.960938 -18.453125 L 18.960938 -21.21875 C 18.960938 -21.828125 18.757812 -22.199219 17.980469 -22.199219 Z M 17.980469 -22.199219 "/></g></g></g><g fill="rgb(79.998779%, 47.44873%, 45.489502%)" fill-opacity="1"><g transform="translate(281.91952, 268.117307)"><g><path d="M 18.589844 -4.722656 L 7.828125 -4.722656 L 7.828125 -9.175781 L 16.867188 -9.175781 C 17.644531 -9.175781 17.847656 -9.546875 17.847656 -10.152344 L 17.847656 -12.785156 C 17.847656 -13.394531 17.644531 -13.765625 16.867188 -13.765625 L 7.828125 -13.765625 L 7.828125 -17.441406 L 18.015625 -17.441406 C 18.789062 -17.441406 18.992188 -17.8125 18.992188 -18.417969 L 18.992188 -21.21875 C 18.992188 -21.828125 18.789062 -22.199219 18.015625 -22.199219 L 3.476562 -22.199219 C 2.699219 -22.199219 2.496094 -21.828125 2.496094 -21.21875 L 2.496094 -0.976562 C 2.496094 -0.371094 2.699219 0 3.476562 0 L 18.589844 0 C 19.363281 0 19.566406 -0.371094 19.566406 -0.976562 L 19.566406 -3.746094 C 19.566406 -4.351562 19.363281 -4.722656 18.589844 -4.722656 Z M 18.589844 -4.722656 "/></g></g></g><g fill="rgb(79.998779%, 47.44873%, 45.489502%)" fill-opacity="1"><g transform="translate(311.635636, 268.117307)"><g><path d="M 20.679688 -1.078125 L 15.921875 -7.996094 C 18.015625 -8.703125 20.613281 -11.167969 20.613281 -14.707031 C 20.613281 -16.867188 19.902344 -18.789062 18.65625 -20.003906 C 17.238281 -21.421875 15.621094 -22.164062 11.941406 -22.164062 L 3.441406 -22.164062 C 2.664062 -22.164062 2.496094 -21.792969 2.496094 -21.1875 L 2.496094 -0.976562 C 2.496094 -0.203125 2.832031 0 3.441406 0 L 6.78125 0 C 7.386719 0 7.757812 -0.203125 7.757812 -0.976562 L 7.757812 -17.441406 L 12.246094 -17.441406 C 14 -17.441406 15.347656 -16.328125 15.347656 -14.574219 C 15.347656 -12.988281 13.796875 -11.839844 12.144531 -11.839844 L 11.46875 -11.839844 C 10.695312 -11.839844 10.492188 -11.46875 10.492188 -10.863281 L 10.492188 -8.164062 C 10.492188 -7.21875 10.558594 -6.847656 10.863281 -6.445312 L 14.507812 -1.011719 C 14.976562 -0.304688 15.382812 0 16.191406 0 L 20.171875 0 C 20.816406 0 20.984375 -0.605469 20.679688 -1.078125 Z M 20.679688 -1.078125 "/></g></g></g><g fill="rgb(90.19928%, 37.249756%, 36.079407%)" fill-opacity="1"><g transform="translate(39.378122, 312.976443)"><g><path d="M 42.0625 -32.21875 L 36.871094 -32.21875 C 35.402344 -32.21875 35.0625 -31.242188 34.914062 -30.652344 L 30.066406 -14.003906 L 25.316406 -30.652344 C 25.121094 -31.339844 24.777344 -32.21875 23.699219 -32.21875 L 20.273438 -32.21875 C 19.144531 -32.21875 18.804688 -31.339844 18.609375 -30.652344 L 13.90625 -14.003906 L 9.058594 -30.652344 C 8.863281 -31.242188 8.570312 -32.21875 7.101562 -32.21875 L 1.714844 -32.21875 C 0.832031 -32.21875 0.683594 -31.386719 0.832031 -30.800781 L 9.890625 -1.027344 C 9.890625 -1.027344 10.136719 0 11.214844 0 L 15.523438 0 C 16.796875 0 17.089844 -1.125 17.089844 -1.125 L 21.988281 -16.746094 L 26.882812 -1.125 C 26.882812 -1.125 27.175781 0 28.449219 0 L 32.5625 0 C 33.640625 0 33.886719 -1.027344 33.886719 -1.027344 L 42.894531 -30.800781 C 43.089844 -31.386719 42.945312 -32.21875 42.0625 -32.21875 Z M 42.0625 -32.21875 "/></g></g></g><g fill="rgb(90.19928%, 37.249756%, 36.079407%)" fill-opacity="1"><g transform="translate(83.344981, 312.976443)"><g><path d="M 26.980469 -6.855469 L 11.359375 -6.855469 L 11.359375 -13.320312 L 24.484375 -13.320312 C 25.609375 -13.320312 25.902344 -13.859375 25.902344 -14.738281 L 25.902344 -18.558594 C 25.902344 -19.441406 25.609375 -19.980469 24.484375 -19.980469 L 11.359375 -19.980469 L 11.359375 -25.316406 L 26.148438 -25.316406 C 27.273438 -25.316406 27.570312 -25.855469 27.570312 -26.734375 L 27.570312 -30.800781 C 27.570312 -31.683594 27.273438 -32.21875 26.148438 -32.21875 L 5.042969 -32.21875 C 3.917969 -32.21875 3.625 -31.683594 3.625 -30.800781 L 3.625 -1.421875 C 3.625 -0.539062 3.917969 0 5.042969 0 L 26.980469 0 C 28.105469 0 28.402344 -0.539062 28.402344 -1.421875 L 28.402344 -5.433594 C 28.402344 -6.316406 28.105469 -6.855469 26.980469 -6.855469 Z M 26.980469 -6.855469 "/></g></g></g><g fill="rgb(90.19928%, 37.249756%, 36.079407%)" fill-opacity="1"><g transform="translate(114.043446, 312.976443)"><g><path d="M 26.589844 -16.699219 C 27.03125 -16.894531 30.164062 -18.460938 30.164062 -23.40625 C 30.164062 -28.007812 26.734375 -32.269531 18.753906 -32.269531 L 5.042969 -32.269531 C 3.917969 -32.269531 3.625 -31.730469 3.625 -30.847656 L 3.625 -1.421875 C 3.625 -0.539062 3.917969 0 5.042969 0 L 19.441406 0 C 26.246094 0 31.09375 -3.183594 31.09375 -9.402344 C 31.09375 -14.691406 26.980469 -16.550781 26.589844 -16.699219 Z M 19.539062 -6.953125 L 11.3125 -6.953125 L 11.3125 -25.363281 L 18.753906 -25.363281 C 21.300781 -25.363281 22.820312 -24.828125 22.820312 -22.621094 C 22.820312 -20.714844 21.59375 -19.683594 18.753906 -19.683594 L 18.117188 -19.683594 C 16.992188 -19.683594 16.699219 -19.144531 16.699219 -18.265625 L 16.699219 -14.542969 C 16.699219 -13.660156 16.992188 -13.125 18.117188 -13.125 L 19.246094 -13.125 C 21.59375 -13.125 23.308594 -12.4375 23.308594 -10.136719 C 23.308594 -7.933594 21.9375 -6.953125 19.539062 -6.953125 Z M 19.539062 -6.953125 "/></g></g></g><g fill="rgb(90.19928%, 37.249756%, 36.079407%)" fill-opacity="1"><g transform="translate(147.679553, 312.976443)"><g/></g></g><g fill="rgb(90.19928%, 37.249756%, 36.079407%)" fill-opacity="1"><g transform="translate(160.947946, 312.976443)"><g><path d="M 16.011719 -32.21875 L 5.042969 -32.21875 C 3.917969 -32.21875 3.625 -31.683594 3.625 -30.800781 L 3.625 -1.421875 C 3.625 -0.539062 3.917969 0 5.042969 0 L 16.011719 0 C 21.839844 0 29.183594 -3.328125 29.183594 -11.019531 L 29.183594 -21.203125 C 29.183594 -28.84375 21.839844 -32.21875 16.011719 -32.21875 Z M 21.496094 -20.515625 L 21.496094 -11.703125 C 21.496094 -8.570312 19.246094 -6.804688 16.011719 -6.804688 L 11.3125 -6.804688 L 11.3125 -25.414062 L 16.011719 -25.414062 C 19.246094 -25.414062 21.496094 -23.601562 21.496094 -20.515625 Z M 21.496094 -20.515625 "/></g></g></g><g fill="rgb(90.19928%, 37.249756%, 36.079407%)" fill-opacity="1"><g transform="translate(192.772511, 312.976443)"><g><path d="M 26.980469 -6.855469 L 11.359375 -6.855469 L 11.359375 -13.320312 L 24.484375 -13.320312 C 25.609375 -13.320312 25.902344 -13.859375 25.902344 -14.738281 L 25.902344 -18.558594 C 25.902344 -19.441406 25.609375 -19.980469 24.484375 -19.980469 L 11.359375 -19.980469 L 11.359375 -25.316406 L 26.148438 -25.316406 C 27.273438 -25.316406 27.570312 -25.855469 27.570312 -26.734375 L 27.570312 -30.800781 C 27.570312 -31.683594 27.273438 -32.21875 26.148438 -32.21875 L 5.042969 -32.21875 C 3.917969 -32.21875 3.625 -31.683594 3.625 -30.800781 L 3.625 -1.421875 C 3.625 -0.539062 3.917969 0 5.042969 0 L 26.980469 0 C 28.105469 0 28.402344 -0.539062 28.402344 -1.421875 L 28.402344 -5.433594 C 28.402344 -6.316406 28.105469 -6.855469 26.980469 -6.855469 Z M 26.980469 -6.855469 "/></g></g></g><g fill="rgb(90.19928%, 37.249756%, 36.079407%)" fill-opacity="1"><g transform="translate(223.470976, 312.976443)"><g><path d="M 18.804688 -18.707031 C 16.84375 -19.488281 9.648438 -20.566406 9.648438 -23.554688 C 9.648438 -25.757812 12.339844 -26.394531 13.957031 -26.394531 C 15.425781 -26.394531 17.1875 -25.953125 18.117188 -25.070312 C 18.707031 -24.484375 18.949219 -24.09375 19.144531 -23.601562 C 19.390625 -22.964844 19.539062 -22.28125 20.46875 -22.28125 L 25.265625 -22.28125 C 26.394531 -22.28125 26.6875 -22.476562 26.6875 -23.652344 C 26.6875 -30.113281 19.878906 -32.957031 13.660156 -32.957031 C 7.539062 -32.710938 1.761719 -29.578125 1.761719 -23.210938 C 1.761719 -16.992188 6.316406 -15.03125 11.261719 -13.464844 C 15.425781 -12.144531 19.78125 -12.09375 19.78125 -9.351562 C 19.78125 -6.609375 17.628906 -6.023438 14.984375 -6.023438 C 13.171875 -6.023438 11.164062 -6.464844 10.183594 -7.640625 C 9.546875 -8.375 9.304688 -9.011719 9.253906 -9.648438 C 9.15625 -10.871094 8.617188 -11.019531 7.492188 -11.019531 L 2.742188 -11.019531 C 1.617188 -11.019531 1.320312 -10.773438 1.320312 -9.648438 C 1.320312 -2.792969 8.375 0.734375 14.496094 0.734375 C 22.035156 0.734375 27.519531 -2.59375 27.519531 -9.546875 C 27.519531 -16.207031 22.328125 -17.628906 18.804688 -18.707031 Z M 18.804688 -18.707031 "/></g></g></g><g fill="rgb(90.19928%, 37.249756%, 36.079407%)" fill-opacity="1"><g transform="translate(253.092312, 312.976443)"><g><path d="M 17.628906 -6.707031 L 14.542969 -6.707031 L 14.542969 -25.414062 L 17.480469 -25.414062 C 18.609375 -25.414062 18.902344 -25.953125 18.902344 -26.835938 L 18.902344 -30.800781 C 18.902344 -31.683594 18.609375 -32.21875 17.480469 -32.21875 L 3.867188 -32.21875 C 2.742188 -32.21875 2.449219 -31.683594 2.449219 -30.800781 L 2.449219 -26.835938 C 2.449219 -25.953125 2.742188 -25.414062 3.867188 -25.414062 L 6.855469 -25.414062 L 6.855469 -6.707031 L 3.769531 -6.707031 C 2.644531 -6.707031 2.351562 -6.167969 2.351562 -5.289062 L 2.351562 -1.421875 C 2.351562 -0.539062 2.644531 0 3.769531 0 L 17.628906 0 C 18.753906 0 19.046875 -0.539062 19.046875 -1.421875 L 19.046875 -5.289062 C 19.046875 -6.167969 18.753906 -6.707031 17.628906 -6.707031 Z M 17.628906 -6.707031 "/></g></g></g><g fill="rgb(90.19928%, 37.249756%, 36.079407%)" fill-opacity="1"><g transform="translate(274.830935, 312.976443)"><g><path d="M 27.570312 -17.972656 L 16.84375 -17.972656 C 15.71875 -17.972656 15.425781 -17.433594 15.425781 -16.550781 L 15.425781 -12.730469 C 15.425781 -11.851562 15.71875 -11.3125 16.84375 -11.3125 L 21.25 -11.3125 C 21.25 -7.539062 19 -6.070312 15.816406 -6.070312 C 12.585938 -6.070312 10.429688 -7.882812 10.429688 -11.019531 L 10.429688 -20.859375 C 10.429688 -23.992188 12.585938 -26.148438 15.816406 -26.148438 C 19.097656 -26.148438 20.859375 -24.679688 21.398438 -23.160156 C 21.644531 -22.476562 21.449219 -21.496094 22.820312 -21.496094 L 27.570312 -21.496094 C 28.695312 -21.496094 28.988281 -21.691406 28.988281 -22.867188 C 28.988281 -29.429688 21.9375 -32.957031 15.816406 -32.957031 C 10.039062 -32.957031 2.644531 -29.675781 2.644531 -21.9375 L 2.644531 -9.890625 C 2.644531 -2.203125 10.039062 0.734375 15.816406 0.734375 C 21.398438 0.734375 28.546875 -2.398438 28.988281 -9.449219 L 28.988281 -16.550781 C 28.988281 -17.433594 28.695312 -17.972656 27.570312 -17.972656 Z M 27.570312 -17.972656 "/></g></g></g><g fill="rgb(90.19928%, 37.249756%, 36.079407%)" fill-opacity="1"><g transform="translate(306.459656, 312.976443)"><g><path d="M 28.351562 -32.21875 L 23.652344 -32.21875 C 22.769531 -32.21875 22.230469 -31.925781 22.230469 -30.800781 L 22.230469 -13.808594 L 11.851562 -30.554688 C 11.214844 -31.535156 10.871094 -32.21875 9.648438 -32.21875 L 5.042969 -32.21875 C 3.917969 -32.21875 3.625 -31.683594 3.625 -30.800781 L 3.625 -1.421875 C 3.625 -0.292969 4.164062 0 5.042969 0 L 9.890625 0 C 10.773438 0 11.3125 -0.292969 11.3125 -1.421875 L 11.3125 -18.460938 L 21.691406 -1.664062 C 22.328125 -0.683594 22.671875 0 23.894531 0 L 28.351562 0 C 29.476562 0 29.773438 -0.539062 29.773438 -1.421875 L 29.773438 -30.800781 C 29.773438 -31.925781 29.234375 -32.21875 28.351562 -32.21875 Z M 28.351562 -32.21875 "/></g></g></g></svg>