<svg xmlns="http://www.w3.org/2000/svg" xmlns:xlink="http://www.w3.org/1999/xlink" width="500" zoomAndPan="magnify" viewBox="0 0 375 374.999991" height="500" preserveAspectRatio="xMidYMid meet" version="1.0"><defs><g/></defs><rect x="-37.5" width="450" fill="rgb(100%, 100%, 100%)" y="-37.499999" height="449.999989" fill-opacity="1"/><rect x="-37.5" width="450" fill="rgb(100%, 98.039246%, 91.758728%)" y="-37.499999" height="449.999989" fill-opacity="1"/><rect x="-37.5" width="450" fill="rgb(100%, 100%, 100%)" y="-37.499999" height="449.999989" fill-opacity="1"/><rect x="-37.5" width="450" fill="rgb(100%, 98.039246%, 91.758728%)" y="-37.499999" height="449.999989" fill-opacity="1"/><path stroke-linecap="butt" transform="matrix(0.000000000000002067, 33.752689, -33.749998, 0.000000000000002067, 54.056329, 37.816982)" fill="none" stroke-linejoin="miter" d="M -0.0000170673 0.0000486356 L 4.355307 0.0000486356 " stroke="rgb(15.289307%, 50.19989%, 58.039856%)" stroke-width="1" stroke-opacity="1" stroke-miterlimit="4"/><path stroke-linecap="butt" transform="matrix(33.749998, 0, 0, 33.749998, 39.349609, 167.932196)" fill="none" stroke-linejoin="miter" d="M -0.000057858 0.0000414097 L 7.222396 0.0000414097 " stroke="rgb(15.289307%, 50.19989%, 58.039856%)" stroke-width="1" stroke-opacity="1" stroke-miterlimit="4"/><path stroke-linecap="butt" transform="matrix(-33.772871, -0.000000000000004136, 0.000000000000004133, -33.749998, 338.019357, 54.586948)" fill="none" stroke-linejoin="miter" d="M -0.00000516825 0.0000299293 L 7.173143 0.0000299293 " stroke="rgb(49.01886%, 50.979614%, 72.158813%)" stroke-width="1" stroke-opacity="1" stroke-miterlimit="4"/><path stroke-linecap="butt" transform="matrix(33.739136, 0.15288, -0.152927, 33.74965, 37.183274, 219.520781)" fill="none" stroke-linejoin="miter" d="M 0.00000932162 -0.0000370659 L 8.91399 -0.0000217918 " stroke="rgb(49.01886%, 50.979614%, 72.158813%)" stroke-width="1" stroke-opacity="1" stroke-miterlimit="4"/><path stroke-linecap="butt" transform="matrix(-33.722005, -0.00000000000000413, 0.000000000000004173, -34.074072, 338.022784, 115.425088)" fill="none" stroke-linejoin="miter" d="M -0.0000193819 -0.000020333 L 7.117111 -0.000020333 " stroke="rgb(49.01886%, 50.979614%, 72.158813%)" stroke-width="1" stroke-opacity="1" stroke-miterlimit="4"/><path stroke-linecap="butt" transform="matrix(0.133329, 33.716285, -34.073805, 0.134743, 112.314921, 37.798133)" fill="none" stroke-linejoin="miter" d="M -0.0000371496 -0.0000437309 L 2.802994 0.0000334933 " stroke="rgb(49.01886%, 50.979614%, 72.158813%)" stroke-width="1" stroke-opacity="1" stroke-miterlimit="4"/><path stroke-linecap="butt" transform="matrix(0.000000000000002063, 33.693085, -33.796939, 0.000000000000002069, 321.640236, 98.74947)" fill="none" stroke-linejoin="miter" d="M 0.0000157446 -0.0000115046 L 4.118187 -0.0000115046 " stroke="rgb(49.01886%, 50.979614%, 72.158813%)" stroke-width="1" stroke-opacity="1" stroke-miterlimit="4"/><g fill="rgb(15.289307%, 50.19989%, 58.039856%)" fill-opacity="1"><g transform="translate(42.333067, 268.418165)"><g><path d="M 17.507812 -4.722656 L 7.792969 -4.722656 L 7.792969 -21.21875 C 7.792969 -21.992188 7.421875 -22.195312 6.8125 -22.195312 L 3.472656 -22.195312 C 2.867188 -22.195312 2.496094 -21.992188 2.496094 -21.21875 L 2.496094 -0.976562 C 2.496094 -0.371094 2.699219 0 3.472656 0 L 17.507812 0 C 18.28125 0 18.484375 -0.371094 18.484375 -0.976562 L 18.484375 -3.746094 C 18.484375 -4.351562 18.28125 -4.722656 17.507812 -4.722656 Z M 17.507812 -4.722656 "/></g></g></g><g fill="rgb(15.289307%, 50.19989%, 58.039856%)" fill-opacity="1"><g transform="translate(70.531741, 268.418165)"><g><path d="M 19.09375 -22.195312 L 15.753906 -22.195312 C 15.144531 -22.195312 14.773438 -21.992188 14.773438 -21.21875 L 14.773438 -7.523438 C 14.773438 -5.398438 13.359375 -4.183594 11.132812 -4.183594 C 8.90625 -4.183594 7.523438 -5.398438 7.523438 -7.523438 L 7.523438 -21.21875 C 7.523438 -21.992188 7.152344 -22.195312 6.542969 -22.195312 L 3.203125 -22.195312 C 2.597656 -22.195312 2.226562 -21.992188 2.226562 -21.21875 L 2.226562 -6.78125 C 2.226562 -1.484375 7.117188 0.507812 11.132812 0.507812 C 15.144531 0.507812 20.070312 -1.484375 20.070312 -6.78125 L 20.070312 -21.21875 C 20.070312 -21.992188 19.699219 -22.195312 19.09375 -22.195312 Z M 19.09375 -22.195312 "/></g></g></g><g fill="rgb(15.289307%, 50.19989%, 58.039856%)" fill-opacity="1"><g transform="translate(101.394855, 268.418165)"><g><path d="M 20.980469 -22.195312 L 16.429688 -22.195312 C 15.652344 -22.195312 15.414062 -22.128906 14.742188 -21.386719 L 7.757812 -13.695312 L 7.757812 -21.21875 C 7.757812 -21.992188 7.386719 -22.195312 6.8125 -22.195312 L 3.472656 -22.195312 C 2.832031 -22.195312 2.496094 -21.992188 2.496094 -21.21875 L 2.496094 -0.976562 C 2.496094 -0.203125 2.832031 0 3.472656 0 L 6.8125 0 C 7.386719 0 7.757812 -0.203125 7.757812 -0.976562 L 7.757812 -6.984375 L 9.851562 -9.175781 C 11.671875 -6.140625 14.671875 -1.078125 14.671875 -1.078125 C 15.113281 -0.371094 15.550781 0 16.359375 0 L 20.476562 0 C 21.117188 0 21.25 -0.640625 20.980469 -1.078125 L 13.730469 -13.019531 L 21.320312 -21.25 C 21.621094 -21.554688 21.621094 -22.195312 20.980469 -22.195312 Z M 20.980469 -22.195312 "/></g></g></g><g fill="rgb(15.289307%, 50.19989%, 58.039856%)" fill-opacity="1"><g transform="translate(132.021878, 268.418165)"><g><path d="M 18.585938 -4.722656 L 7.824219 -4.722656 L 7.824219 -9.175781 L 16.867188 -9.175781 C 17.640625 -9.175781 17.84375 -9.546875 17.84375 -10.152344 L 17.84375 -12.785156 C 17.84375 -13.390625 17.640625 -13.761719 16.867188 -13.761719 L 7.824219 -13.761719 L 7.824219 -17.441406 L 18.011719 -17.441406 C 18.789062 -17.441406 18.992188 -17.8125 18.992188 -18.417969 L 18.992188 -21.21875 C 18.992188 -21.824219 18.789062 -22.195312 18.011719 -22.195312 L 3.472656 -22.195312 C 2.699219 -22.195312 2.496094 -21.824219 2.496094 -21.21875 L 2.496094 -0.976562 C 2.496094 -0.371094 2.699219 0 3.472656 0 L 18.585938 0 C 19.363281 0 19.566406 -0.371094 19.566406 -0.976562 L 19.566406 -3.746094 C 19.566406 -4.351562 19.363281 -4.722656 18.585938 -4.722656 Z M 18.585938 -4.722656 "/></g></g></g><g fill="rgb(15.289307%, 50.19989%, 58.039856%)" fill-opacity="1"><g transform="translate(161.738266, 268.418165)"><g><path d="M 12.953125 -12.886719 C 11.605469 -13.425781 6.644531 -14.167969 6.644531 -16.226562 C 6.644531 -17.742188 8.5 -18.183594 9.613281 -18.183594 C 10.625 -18.183594 11.839844 -17.878906 12.480469 -17.269531 C 12.886719 -16.867188 13.054688 -16.597656 13.1875 -16.257812 C 13.359375 -15.820312 13.460938 -15.347656 14.101562 -15.347656 L 17.40625 -15.347656 C 18.183594 -15.347656 18.382812 -15.484375 18.382812 -16.292969 C 18.382812 -20.746094 13.695312 -22.703125 9.410156 -22.703125 C 5.195312 -22.535156 1.214844 -20.375 1.214844 -15.988281 C 1.214844 -11.707031 4.351562 -10.355469 7.757812 -9.277344 C 10.625 -8.367188 13.628906 -8.332031 13.628906 -6.441406 C 13.628906 -4.554688 12.144531 -4.148438 10.320312 -4.148438 C 9.074219 -4.148438 7.691406 -4.453125 7.015625 -5.261719 C 6.578125 -5.769531 6.410156 -6.207031 6.375 -6.644531 C 6.308594 -7.488281 5.9375 -7.589844 5.160156 -7.589844 L 1.890625 -7.589844 C 1.113281 -7.589844 0.910156 -7.421875 0.910156 -6.644531 C 0.910156 -1.921875 5.769531 0.507812 9.984375 0.507812 C 15.179688 0.507812 18.957031 -1.789062 18.957031 -6.578125 C 18.957031 -11.164062 15.382812 -12.144531 12.953125 -12.886719 Z M 12.953125 -12.886719 "/></g></g></g><g fill="rgb(15.289307%, 50.19989%, 58.039856%)" fill-opacity="1"><g transform="translate(190.712666, 268.418165)"><g><path d="M 19.632812 -22.195312 L 16.292969 -22.195312 C 15.6875 -22.195312 15.316406 -21.992188 15.316406 -21.21875 L 15.316406 -13.59375 L 7.792969 -13.59375 L 7.792969 -21.21875 C 7.792969 -21.992188 7.453125 -22.195312 6.8125 -22.195312 L 3.472656 -22.195312 C 2.867188 -22.195312 2.496094 -21.992188 2.496094 -21.21875 L 2.496094 -0.976562 C 2.496094 -0.203125 2.867188 0 3.472656 0 L 6.8125 0 C 7.453125 0 7.792969 -0.203125 7.792969 -0.976562 L 7.792969 -8.601562 L 15.316406 -8.601562 L 15.316406 -0.976562 C 15.316406 -0.203125 15.6875 0 16.292969 0 L 19.632812 0 C 20.238281 0 20.609375 -0.203125 20.609375 -0.976562 L 20.609375 -21.21875 C 20.609375 -21.992188 20.238281 -22.195312 19.632812 -22.195312 Z M 19.632812 -22.195312 "/></g></g></g><g fill="rgb(15.289307%, 50.19989%, 58.039856%)" fill-opacity="1"><g transform="translate(222.385222, 268.418165)"><g><path d="M 21.589844 -0.945312 L 14.132812 -21.148438 C 13.832031 -21.859375 13.492188 -22.195312 12.75 -22.195312 L 9.511719 -22.195312 C 8.769531 -22.195312 8.398438 -21.859375 8.128906 -21.148438 L 0.640625 -0.945312 C 0.472656 -0.539062 0.472656 0 1.214844 0 L 4.757812 0 C 5.5 0 5.769531 -0.203125 6.039062 -1.011719 L 6.984375 -3.675781 L 15.246094 -3.675781 L 16.191406 -1.011719 C 16.460938 -0.203125 16.730469 0 17.472656 0 L 21.015625 0 C 21.757812 0 21.757812 -0.539062 21.589844 -0.945312 Z M 11.132812 -15.855469 L 13.660156 -8.398438 L 8.601562 -8.398438 Z M 11.132812 -15.855469 "/></g></g></g><g fill="rgb(15.289307%, 50.19989%, 58.039856%)" fill-opacity="1"><g transform="translate(253.045972, 268.418165)"><g><path d="M 17.980469 -22.195312 L 3.472656 -22.195312 C 2.699219 -22.195312 2.496094 -21.824219 2.496094 -21.21875 L 2.496094 -0.976562 C 2.496094 -0.371094 2.699219 0 3.472656 0 L 6.8125 0 C 7.589844 0 7.792969 -0.136719 7.792969 -1.011719 L 7.792969 -8.90625 L 16.5625 -8.90625 C 17.339844 -8.90625 17.539062 -9.277344 17.539062 -9.882812 L 17.539062 -12.546875 C 17.539062 -13.15625 17.339844 -13.527344 16.5625 -13.527344 L 7.792969 -13.527344 L 7.792969 -17.472656 L 17.980469 -17.472656 C 18.753906 -17.472656 18.957031 -17.84375 18.957031 -18.453125 L 18.957031 -21.21875 C 18.957031 -21.824219 18.753906 -22.195312 17.980469 -22.195312 Z M 17.980469 -22.195312 "/></g></g></g><g fill="rgb(15.289307%, 50.19989%, 58.039856%)" fill-opacity="1"><g transform="translate(281.91919, 268.418165)"><g><path d="M 18.585938 -4.722656 L 7.824219 -4.722656 L 7.824219 -9.175781 L 16.867188 -9.175781 C 17.640625 -9.175781 17.84375 -9.546875 17.84375 -10.152344 L 17.84375 -12.785156 C 17.84375 -13.390625 17.640625 -13.761719 16.867188 -13.761719 L 7.824219 -13.761719 L 7.824219 -17.441406 L 18.011719 -17.441406 C 18.789062 -17.441406 18.992188 -17.8125 18.992188 -18.417969 L 18.992188 -21.21875 C 18.992188 -21.824219 18.789062 -22.195312 18.011719 -22.195312 L 3.472656 -22.195312 C 2.699219 -22.195312 2.496094 -21.824219 2.496094 -21.21875 L 2.496094 -0.976562 C 2.496094 -0.371094 2.699219 0 3.472656 0 L 18.585938 0 C 19.363281 0 19.566406 -0.371094 19.566406 -0.976562 L 19.566406 -3.746094 C 19.566406 -4.351562 19.363281 -4.722656 18.585938 -4.722656 Z M 18.585938 -4.722656 "/></g></g></g><g fill="rgb(15.289307%, 50.19989%, 58.039856%)" fill-opacity="1"><g transform="translate(311.635567, 268.418165)"><g><path d="M 20.679688 -1.078125 L 15.921875 -7.996094 C 18.011719 -8.703125 20.609375 -11.164062 20.609375 -14.707031 C 20.609375 -16.867188 19.902344 -18.789062 18.652344 -20.003906 C 17.238281 -21.421875 15.617188 -22.164062 11.941406 -22.164062 L 3.441406 -22.164062 C 2.664062 -22.164062 2.496094 -21.792969 2.496094 -21.183594 L 2.496094 -0.976562 C 2.496094 -0.203125 2.832031 0 3.441406 0 L 6.78125 0 C 7.386719 0 7.757812 -0.203125 7.757812 -0.976562 L 7.757812 -17.441406 L 12.246094 -17.441406 C 14 -17.441406 15.347656 -16.328125 15.347656 -14.574219 C 15.347656 -12.988281 13.796875 -11.839844 12.144531 -11.839844 L 11.46875 -11.839844 C 10.691406 -11.839844 10.492188 -11.46875 10.492188 -10.863281 L 10.492188 -8.164062 C 10.492188 -7.21875 10.558594 -6.847656 10.863281 -6.441406 L 14.503906 -1.011719 C 14.976562 -0.304688 15.382812 0 16.191406 0 L 20.171875 0 C 20.8125 0 20.980469 -0.605469 20.679688 -1.078125 Z M 20.679688 -1.078125 "/></g></g></g><g fill="rgb(14.509583%, 30.198669%, 33.729553%)" fill-opacity="1"><g transform="translate(39.349609, 313.025757)"><g><path d="M 42.0625 -32.222656 L 36.875 -32.222656 C 35.40625 -32.222656 35.0625 -31.242188 34.914062 -30.65625 L 30.066406 -14.003906 L 25.316406 -30.65625 C 25.121094 -31.339844 24.777344 -32.222656 23.699219 -32.222656 L 20.273438 -32.222656 C 19.148438 -32.222656 18.804688 -31.339844 18.609375 -30.65625 L 13.90625 -14.003906 L 9.058594 -30.65625 C 8.863281 -31.242188 8.570312 -32.222656 7.101562 -32.222656 L 1.714844 -32.222656 C 0.832031 -32.222656 0.6875 -31.390625 0.832031 -30.800781 L 9.890625 -1.027344 C 9.890625 -1.027344 10.136719 0 11.214844 0 L 15.523438 0 C 16.796875 0 17.089844 -1.125 17.089844 -1.125 L 21.988281 -16.746094 L 26.882812 -1.125 C 26.882812 -1.125 27.175781 0 28.449219 0 L 32.5625 0 C 33.640625 0 33.886719 -1.027344 33.886719 -1.027344 L 42.898438 -30.800781 C 43.09375 -31.390625 42.945312 -32.222656 42.0625 -32.222656 Z M 42.0625 -32.222656 "/></g></g></g><g fill="rgb(14.509583%, 30.198669%, 33.729553%)" fill-opacity="1"><g transform="translate(83.323502, 313.025757)"><g><path d="M 26.980469 -6.855469 L 11.359375 -6.855469 L 11.359375 -13.320312 L 24.484375 -13.320312 C 25.609375 -13.320312 25.90625 -13.859375 25.90625 -14.738281 L 25.90625 -18.558594 C 25.90625 -19.441406 25.609375 -19.980469 24.484375 -19.980469 L 11.359375 -19.980469 L 11.359375 -25.316406 L 26.148438 -25.316406 C 27.277344 -25.316406 27.570312 -25.855469 27.570312 -26.738281 L 27.570312 -30.800781 C 27.570312 -31.683594 27.277344 -32.222656 26.148438 -32.222656 L 5.042969 -32.222656 C 3.917969 -32.222656 3.625 -31.683594 3.625 -30.800781 L 3.625 -1.421875 C 3.625 -0.539062 3.917969 0 5.042969 0 L 26.980469 0 C 28.109375 0 28.402344 -0.539062 28.402344 -1.421875 L 28.402344 -5.433594 C 28.402344 -6.316406 28.109375 -6.855469 26.980469 -6.855469 Z M 26.980469 -6.855469 "/></g></g></g><g fill="rgb(14.509583%, 30.198669%, 33.729553%)" fill-opacity="1"><g transform="translate(114.02688, 313.025757)"><g><path d="M 26.589844 -16.699219 C 27.03125 -16.894531 30.164062 -18.460938 30.164062 -23.40625 C 30.164062 -28.011719 26.738281 -32.269531 18.753906 -32.269531 L 5.042969 -32.269531 C 3.917969 -32.269531 3.625 -31.730469 3.625 -30.851562 L 3.625 -1.421875 C 3.625 -0.539062 3.917969 0 5.042969 0 L 19.441406 0 C 26.246094 0 31.09375 -3.183594 31.09375 -9.402344 C 31.09375 -14.691406 26.980469 -16.550781 26.589844 -16.699219 Z M 19.539062 -6.953125 L 11.3125 -6.953125 L 11.3125 -25.367188 L 18.753906 -25.367188 C 21.300781 -25.367188 22.820312 -24.828125 22.820312 -22.625 C 22.820312 -20.714844 21.59375 -19.683594 18.753906 -19.683594 L 18.117188 -19.683594 C 16.992188 -19.683594 16.699219 -19.148438 16.699219 -18.265625 L 16.699219 -14.542969 C 16.699219 -13.664062 16.992188 -13.125 18.117188 -13.125 L 19.246094 -13.125 C 21.59375 -13.125 23.308594 -12.4375 23.308594 -10.136719 C 23.308594 -7.933594 21.9375 -6.953125 19.539062 -6.953125 Z M 19.539062 -6.953125 "/></g></g></g><g fill="rgb(14.509583%, 30.198669%, 33.729553%)" fill-opacity="1"><g transform="translate(147.668376, 313.025757)"><g/></g></g><g fill="rgb(14.509583%, 30.198669%, 33.729553%)" fill-opacity="1"><g transform="translate(160.938891, 313.025757)"><g><path d="M 16.011719 -32.222656 L 5.042969 -32.222656 C 3.917969 -32.222656 3.625 -31.683594 3.625 -30.800781 L 3.625 -1.421875 C 3.625 -0.539062 3.917969 0 5.042969 0 L 16.011719 0 C 21.839844 0 29.183594 -3.328125 29.183594 -11.019531 L 29.183594 -21.203125 C 29.183594 -28.84375 21.839844 -32.222656 16.011719 -32.222656 Z M 21.496094 -20.519531 L 21.496094 -11.703125 C 21.496094 -8.570312 19.246094 -6.808594 16.011719 -6.808594 L 11.3125 -6.808594 L 11.3125 -25.414062 L 16.011719 -25.414062 C 19.246094 -25.414062 21.496094 -23.601562 21.496094 -20.519531 Z M 21.496094 -20.519531 "/></g></g></g><g fill="rgb(14.509583%, 30.198669%, 33.729553%)" fill-opacity="1"><g transform="translate(192.768555, 313.025757)"><g><path d="M 26.980469 -6.855469 L 11.359375 -6.855469 L 11.359375 -13.320312 L 24.484375 -13.320312 C 25.609375 -13.320312 25.90625 -13.859375 25.90625 -14.738281 L 25.90625 -18.558594 C 25.90625 -19.441406 25.609375 -19.980469 24.484375 -19.980469 L 11.359375 -19.980469 L 11.359375 -25.316406 L 26.148438 -25.316406 C 27.277344 -25.316406 27.570312 -25.855469 27.570312 -26.738281 L 27.570312 -30.800781 C 27.570312 -31.683594 27.277344 -32.222656 26.148438 -32.222656 L 5.042969 -32.222656 C 3.917969 -32.222656 3.625 -31.683594 3.625 -30.800781 L 3.625 -1.421875 C 3.625 -0.539062 3.917969 0 5.042969 0 L 26.980469 0 C 28.109375 0 28.402344 -0.539062 28.402344 -1.421875 L 28.402344 -5.433594 C 28.402344 -6.316406 28.109375 -6.855469 26.980469 -6.855469 Z M 26.980469 -6.855469 "/></g></g></g><g fill="rgb(14.509583%, 30.198669%, 33.729553%)" fill-opacity="1"><g transform="translate(223.471933, 313.025757)"><g><path d="M 18.804688 -18.707031 C 16.84375 -19.488281 9.648438 -20.566406 9.648438 -23.554688 C 9.648438 -25.757812 12.339844 -26.394531 13.957031 -26.394531 C 15.425781 -26.394531 17.1875 -25.953125 18.117188 -25.070312 C 18.707031 -24.484375 18.949219 -24.09375 19.148438 -23.601562 C 19.390625 -22.964844 19.539062 -22.28125 20.46875 -22.28125 L 25.269531 -22.28125 C 26.394531 -22.28125 26.6875 -22.476562 26.6875 -23.652344 C 26.6875 -30.117188 19.882812 -32.957031 13.664062 -32.957031 C 7.542969 -32.710938 1.761719 -29.578125 1.761719 -23.210938 C 1.761719 -16.992188 6.316406 -15.035156 11.261719 -13.464844 C 15.425781 -12.144531 19.785156 -12.09375 19.785156 -9.351562 C 19.785156 -6.609375 17.628906 -6.023438 14.984375 -6.023438 C 13.171875 -6.023438 11.164062 -6.464844 10.183594 -7.640625 C 9.550781 -8.375 9.304688 -9.011719 9.253906 -9.648438 C 9.15625 -10.871094 8.617188 -11.019531 7.492188 -11.019531 L 2.742188 -11.019531 C 1.617188 -11.019531 1.320312 -10.773438 1.320312 -9.648438 C 1.320312 -2.792969 8.375 0.734375 14.496094 0.734375 C 22.035156 0.734375 27.519531 -2.59375 27.519531 -9.550781 C 27.519531 -16.207031 22.328125 -17.628906 18.804688 -18.707031 Z M 18.804688 -18.707031 "/></g></g></g><g fill="rgb(14.509583%, 30.198669%, 33.729553%)" fill-opacity="1"><g transform="translate(253.098017, 313.025757)"><g><path d="M 17.628906 -6.707031 L 14.542969 -6.707031 L 14.542969 -25.414062 L 17.480469 -25.414062 C 18.609375 -25.414062 18.902344 -25.953125 18.902344 -26.835938 L 18.902344 -30.800781 C 18.902344 -31.683594 18.609375 -32.222656 17.480469 -32.222656 L 3.867188 -32.222656 C 2.742188 -32.222656 2.449219 -31.683594 2.449219 -30.800781 L 2.449219 -26.835938 C 2.449219 -25.953125 2.742188 -25.414062 3.867188 -25.414062 L 6.855469 -25.414062 L 6.855469 -6.707031 L 3.769531 -6.707031 C 2.644531 -6.707031 2.351562 -6.171875 2.351562 -5.289062 L 2.351562 -1.421875 C 2.351562 -0.539062 2.644531 0 3.769531 0 L 17.628906 0 C 18.753906 0 19.046875 -0.539062 19.046875 -1.421875 L 19.046875 -5.289062 C 19.046875 -6.171875 18.753906 -6.707031 17.628906 -6.707031 Z M 17.628906 -6.707031 "/></g></g></g><g fill="rgb(14.509583%, 30.198669%, 33.729553%)" fill-opacity="1"><g transform="translate(274.840106, 313.025757)"><g><path d="M 27.570312 -17.972656 L 16.84375 -17.972656 C 15.71875 -17.972656 15.425781 -17.433594 15.425781 -16.550781 L 15.425781 -12.730469 C 15.425781 -11.851562 15.71875 -11.3125 16.84375 -11.3125 L 21.253906 -11.3125 C 21.253906 -7.542969 19 -6.070312 15.816406 -6.070312 C 12.585938 -6.070312 10.429688 -7.882812 10.429688 -11.019531 L 10.429688 -20.859375 C 10.429688 -23.996094 12.585938 -26.148438 15.816406 -26.148438 C 19.097656 -26.148438 20.859375 -24.679688 21.398438 -23.164062 C 21.644531 -22.476562 21.449219 -21.496094 22.820312 -21.496094 L 27.570312 -21.496094 C 28.695312 -21.496094 28.988281 -21.691406 28.988281 -22.867188 C 28.988281 -29.429688 21.9375 -32.957031 15.816406 -32.957031 C 10.039062 -32.957031 2.644531 -29.675781 2.644531 -21.9375 L 2.644531 -9.890625 C 2.644531 -2.203125 10.039062 0.734375 15.816406 0.734375 C 21.398438 0.734375 28.546875 -2.398438 28.988281 -9.449219 L 28.988281 -16.550781 C 28.988281 -17.433594 28.695312 -17.972656 27.570312 -17.972656 Z M 27.570312 -17.972656 "/></g></g></g><g fill="rgb(14.509583%, 30.198669%, 33.729553%)" fill-opacity="1"><g transform="translate(306.473902, 313.025757)"><g><path d="M 28.351562 -32.222656 L 23.652344 -32.222656 C 22.769531 -32.222656 22.230469 -31.925781 22.230469 -30.800781 L 22.230469 -13.808594 L 11.851562 -30.554688 C 11.214844 -31.535156 10.871094 -32.222656 9.648438 -32.222656 L 5.042969 -32.222656 C 3.917969 -32.222656 3.625 -31.683594 3.625 -30.800781 L 3.625 -1.421875 C 3.625 -0.292969 4.164062 0 5.042969 0 L 9.890625 0 C 10.773438 0 11.3125 -0.292969 11.3125 -1.421875 L 11.3125 -18.460938 L 21.691406 -1.664062 C 22.328125 -0.6875 22.671875 0 23.898438 0 L 28.351562 0 C 29.480469 0 29.773438 -0.539062 29.773438 -1.421875 L 29.773438 -30.800781 C 29.773438 -31.925781 29.234375 -32.222656 28.351562 -32.222656 Z M 28.351562 -32.222656 "/></g></g></g></svg>