<svg xmlns="http://www.w3.org/2000/svg" xmlns:xlink="http://www.w3.org/1999/xlink" width="500" zoomAndPan="magnify" viewBox="0 0 375 374.999991" height="500" preserveAspectRatio="xMidYMid meet" version="1.0"><defs><g/></defs><path stroke-linecap="butt" transform="matrix(0.000000000000002553, 41.696419, -41.693095, 0.000000000000002553, 21.114944, 0.129754)" fill="none" stroke-linejoin="miter" d="M -0.000020324 0.0000398786 L 4.355307 0.0000398786 " stroke="rgb(15.289307%, 50.19989%, 58.039856%)" stroke-width="1" stroke-opacity="1" stroke-miterlimit="4"/><path stroke-linecap="butt" transform="matrix(41.693095, 0, 0, 41.693095, 2.946978, 160.867725)" fill="none" stroke-linejoin="miter" d="M -0.000039955 -0.0000128831 L 7.222379 -0.0000128831 " stroke="rgb(15.289307%, 50.19989%, 58.039856%)" stroke-width="1" stroke-opacity="1" stroke-miterlimit="4"/><path stroke-linecap="butt" transform="matrix(-41.72135, -0.000000000000005109, 0.000000000000005106, -41.693095, 371.908984, 20.846547)" fill="none" stroke-linejoin="miter" d="M -0.0000280953 -0.0000266005 L 7.17312 -0.0000266005 " stroke="rgb(49.01886%, 50.979614%, 72.158813%)" stroke-width="1" stroke-opacity="1" stroke-miterlimit="4"/><path stroke-linecap="butt" transform="matrix(41.679672, 0.18886, -0.188919, 41.692665, 0.270793, 224.597724)" fill="none" stroke-linejoin="miter" d="M -0.0000302843 -0.00000147944 L 8.913937 0.000000967655 " stroke="rgb(49.01886%, 50.979614%, 72.158813%)" stroke-width="1" stroke-opacity="1" stroke-miterlimit="4"/><path stroke-linecap="butt" transform="matrix(-41.658513, -0.000000000000005102, 0.000000000000005155, -42.093439, 371.913232, 96.00301)" fill="none" stroke-linejoin="miter" d="M -0.000019934 -0.0000212801 L 7.117092 -0.0000212801 " stroke="rgb(49.01886%, 50.979614%, 72.158813%)" stroke-width="1" stroke-opacity="1" stroke-miterlimit="4"/><path stroke-linecap="butt" transform="matrix(0.164708, 41.651448, -42.093115, 0.166455, 93.084762, 0.106472)" fill="none" stroke-linejoin="miter" d="M -0.0000239663 -0.0000280298 L 2.803 -0.0000103804 " stroke="rgb(49.01886%, 50.979614%, 72.158813%)" stroke-width="1" stroke-opacity="1" stroke-miterlimit="4"/><path stroke-linecap="butt" transform="matrix(0.000000000000002549, 41.622784, -41.751084, 0.000000000000002557, 351.674981, 75.402761)" fill="none" stroke-linejoin="miter" d="M -0.0000100161 -0.0000191574 L 4.118171 -0.0000191574 " stroke="rgb(49.01886%, 50.979614%, 72.158813%)" stroke-width="1" stroke-opacity="1" stroke-miterlimit="4"/><g fill="rgb(15.289307%, 50.19989%, 58.039856%)" fill-opacity="1"><g transform="translate(6.632601, 285.003189)"><g><path d="M 21.628906 -5.835938 L 9.625 -5.835938 L 9.625 -26.210938 C 9.625 -27.167969 9.167969 -27.417969 8.417969 -27.417969 L 4.292969 -27.417969 C 3.542969 -27.417969 3.082031 -27.167969 3.082031 -26.210938 L 3.082031 -1.207031 C 3.082031 -0.457031 3.332031 0 4.292969 0 L 21.628906 0 C 22.585938 0 22.835938 -0.457031 22.835938 -1.207031 L 22.835938 -4.625 C 22.835938 -5.375 22.585938 -5.835938 21.628906 -5.835938 Z M 21.628906 -5.835938 "/></g></g></g><g fill="rgb(15.289307%, 50.19989%, 58.039856%)" fill-opacity="1"><g transform="translate(41.467861, 285.003189)"><g><path d="M 23.585938 -27.417969 L 19.460938 -27.417969 C 18.710938 -27.417969 18.253906 -27.167969 18.253906 -26.210938 L 18.253906 -9.292969 C 18.253906 -6.667969 16.503906 -5.167969 13.75 -5.167969 C 11 -5.167969 9.292969 -6.667969 9.292969 -9.292969 L 9.292969 -26.210938 C 9.292969 -27.167969 8.835938 -27.417969 8.085938 -27.417969 L 3.957031 -27.417969 C 3.207031 -27.417969 2.75 -27.167969 2.75 -26.210938 L 2.75 -8.375 C 2.75 -1.832031 8.792969 0.625 13.75 0.625 C 18.710938 0.625 24.792969 -1.832031 24.792969 -8.375 L 24.792969 -26.210938 C 24.792969 -27.167969 24.335938 -27.417969 23.585938 -27.417969 Z M 23.585938 -27.417969 "/></g></g></g><g fill="rgb(15.289307%, 50.19989%, 58.039856%)" fill-opacity="1"><g transform="translate(79.594639, 285.003189)"><g><path d="M 25.917969 -27.417969 L 20.292969 -27.417969 C 19.335938 -27.417969 19.042969 -27.335938 18.210938 -26.417969 L 9.585938 -16.917969 L 9.585938 -26.210938 C 9.585938 -27.167969 9.125 -27.417969 8.417969 -27.417969 L 4.292969 -27.417969 C 3.5 -27.417969 3.082031 -27.167969 3.082031 -26.210938 L 3.082031 -1.207031 C 3.082031 -0.25 3.5 0 4.292969 0 L 8.417969 0 C 9.125 0 9.585938 -0.25 9.585938 -1.207031 L 9.585938 -8.625 L 12.167969 -11.335938 C 14.417969 -7.585938 18.128906 -1.332031 18.128906 -1.332031 C 18.667969 -0.457031 19.210938 0 20.210938 0 L 25.292969 0 C 26.085938 0 26.253906 -0.792969 25.917969 -1.332031 L 16.960938 -16.085938 L 26.335938 -26.253906 C 26.710938 -26.628906 26.710938 -27.417969 25.917969 -27.417969 Z M 25.917969 -27.417969 "/></g></g></g><g fill="rgb(15.289307%, 50.19989%, 58.039856%)" fill-opacity="1"><g transform="translate(117.429763, 285.003189)"><g><path d="M 22.960938 -5.835938 L 9.667969 -5.835938 L 9.667969 -11.335938 L 20.835938 -11.335938 C 21.792969 -11.335938 22.042969 -11.792969 22.042969 -12.542969 L 22.042969 -15.792969 C 22.042969 -16.542969 21.792969 -17.003906 20.835938 -17.003906 L 9.667969 -17.003906 L 9.667969 -21.542969 L 22.253906 -21.542969 C 23.210938 -21.542969 23.460938 -22.003906 23.460938 -22.753906 L 23.460938 -26.210938 C 23.460938 -26.960938 23.210938 -27.417969 22.253906 -27.417969 L 4.292969 -27.417969 C 3.332031 -27.417969 3.082031 -26.960938 3.082031 -26.210938 L 3.082031 -1.207031 C 3.082031 -0.457031 3.332031 0 4.292969 0 L 22.960938 0 C 23.917969 0 24.167969 -0.457031 24.167969 -1.207031 L 24.167969 -4.625 C 24.167969 -5.375 23.917969 -5.835938 22.960938 -5.835938 Z M 22.960938 -5.835938 "/></g></g></g><g fill="rgb(15.289307%, 50.19989%, 58.039856%)" fill-opacity="1"><g transform="translate(154.139932, 285.003189)"><g><path d="M 16 -15.917969 C 14.335938 -16.585938 8.210938 -17.503906 8.210938 -20.042969 C 8.210938 -21.917969 10.5 -22.460938 11.875 -22.460938 C 13.125 -22.460938 14.625 -22.085938 15.417969 -21.335938 C 15.917969 -20.835938 16.125 -20.503906 16.292969 -20.085938 C 16.503906 -19.542969 16.628906 -18.960938 17.417969 -18.960938 L 21.503906 -18.960938 C 22.460938 -18.960938 22.710938 -19.128906 22.710938 -20.128906 C 22.710938 -25.628906 16.917969 -28.046875 11.625 -28.046875 C 6.417969 -27.835938 1.5 -25.167969 1.5 -19.753906 C 1.5 -14.460938 5.375 -12.792969 9.585938 -11.460938 C 13.125 -10.335938 16.835938 -10.292969 16.835938 -7.960938 C 16.835938 -5.625 15 -5.125 12.75 -5.125 C 11.210938 -5.125 9.5 -5.5 8.667969 -6.5 C 8.125 -7.125 7.917969 -7.667969 7.875 -8.210938 C 7.792969 -9.25 7.335938 -9.375 6.375 -9.375 L 2.332031 -9.375 C 1.375 -9.375 1.125 -9.167969 1.125 -8.210938 C 1.125 -2.375 7.125 0.625 12.335938 0.625 C 18.753906 0.625 23.417969 -2.207031 23.417969 -8.125 C 23.417969 -13.792969 19.003906 -15 16 -15.917969 Z M 16 -15.917969 "/></g></g></g><g fill="rgb(15.289307%, 50.19989%, 58.039856%)" fill-opacity="1"><g transform="translate(189.933485, 285.003189)"><g><path d="M 24.253906 -27.417969 L 20.128906 -27.417969 C 19.378906 -27.417969 18.917969 -27.167969 18.917969 -26.210938 L 18.917969 -16.792969 L 9.625 -16.792969 L 9.625 -26.210938 C 9.625 -27.167969 9.210938 -27.417969 8.417969 -27.417969 L 4.292969 -27.417969 C 3.542969 -27.417969 3.082031 -27.167969 3.082031 -26.210938 L 3.082031 -1.207031 C 3.082031 -0.25 3.542969 0 4.292969 0 L 8.417969 0 C 9.210938 0 9.625 -0.25 9.625 -1.207031 L 9.625 -10.625 L 18.917969 -10.625 L 18.917969 -1.207031 C 18.917969 -0.25 19.378906 0 20.128906 0 L 24.253906 0 C 25.003906 0 25.460938 -0.25 25.460938 -1.207031 L 25.460938 -26.210938 C 25.460938 -27.167969 25.003906 -27.417969 24.253906 -27.417969 Z M 24.253906 -27.417969 "/></g></g></g><g fill="rgb(15.289307%, 50.19989%, 58.039856%)" fill-opacity="1"><g transform="translate(229.060209, 285.003189)"><g><path d="M 26.667969 -1.167969 L 17.460938 -26.128906 C 17.085938 -27.003906 16.667969 -27.417969 15.75 -27.417969 L 11.75 -27.417969 C 10.835938 -27.417969 10.375 -27.003906 10.042969 -26.128906 L 0.792969 -1.167969 C 0.582031 -0.667969 0.582031 0 1.5 0 L 5.875 0 C 6.792969 0 7.125 -0.25 7.460938 -1.25 L 8.625 -4.542969 L 18.835938 -4.542969 L 20.003906 -1.25 C 20.335938 -0.25 20.667969 0 21.585938 0 L 25.960938 0 C 26.878906 0 26.878906 -0.667969 26.667969 -1.167969 Z M 13.75 -19.585938 L 16.878906 -10.375 L 10.625 -10.375 Z M 13.75 -19.585938 "/></g></g></g><g fill="rgb(15.289307%, 50.19989%, 58.039856%)" fill-opacity="1"><g transform="translate(266.936997, 285.003189)"><g><path d="M 22.210938 -27.417969 L 4.292969 -27.417969 C 3.332031 -27.417969 3.082031 -26.960938 3.082031 -26.210938 L 3.082031 -1.207031 C 3.082031 -0.457031 3.332031 0 4.292969 0 L 8.417969 0 C 9.375 0 9.625 -0.167969 9.625 -1.25 L 9.625 -11 L 20.460938 -11 C 21.417969 -11 21.667969 -11.460938 21.667969 -12.210938 L 21.667969 -15.5 C 21.667969 -16.25 21.417969 -16.710938 20.460938 -16.710938 L 9.625 -16.710938 L 9.625 -21.585938 L 22.210938 -21.585938 C 23.167969 -21.585938 23.417969 -22.042969 23.417969 -22.792969 L 23.417969 -26.210938 C 23.417969 -26.960938 23.167969 -27.417969 22.210938 -27.417969 Z M 22.210938 -27.417969 "/></g></g></g><g fill="rgb(15.289307%, 50.19989%, 58.039856%)" fill-opacity="1"><g transform="translate(302.605556, 285.003189)"><g><path d="M 22.960938 -5.835938 L 9.667969 -5.835938 L 9.667969 -11.335938 L 20.835938 -11.335938 C 21.792969 -11.335938 22.042969 -11.792969 22.042969 -12.542969 L 22.042969 -15.792969 C 22.042969 -16.542969 21.792969 -17.003906 20.835938 -17.003906 L 9.667969 -17.003906 L 9.667969 -21.542969 L 22.253906 -21.542969 C 23.210938 -21.542969 23.460938 -22.003906 23.460938 -22.753906 L 23.460938 -26.210938 C 23.460938 -26.960938 23.210938 -27.417969 22.253906 -27.417969 L 4.292969 -27.417969 C 3.332031 -27.417969 3.082031 -26.960938 3.082031 -26.210938 L 3.082031 -1.207031 C 3.082031 -0.457031 3.332031 0 4.292969 0 L 22.960938 0 C 23.917969 0 24.167969 -0.457031 24.167969 -1.207031 L 24.167969 -4.625 C 24.167969 -5.375 23.917969 -5.835938 22.960938 -5.835938 Z M 22.960938 -5.835938 "/></g></g></g><g fill="rgb(15.289307%, 50.19989%, 58.039856%)" fill-opacity="1"><g transform="translate(339.315711, 285.003189)"><g><path d="M 25.542969 -1.332031 L 19.667969 -9.875 C 22.253906 -10.75 25.460938 -13.792969 25.460938 -18.167969 C 25.460938 -20.835938 24.585938 -23.210938 23.042969 -24.710938 C 21.292969 -26.460938 19.292969 -27.378906 14.75 -27.378906 L 4.25 -27.378906 C 3.292969 -27.378906 3.082031 -26.917969 3.082031 -26.167969 L 3.082031 -1.207031 C 3.082031 -0.25 3.5 0 4.25 0 L 8.375 0 C 9.125 0 9.585938 -0.25 9.585938 -1.207031 L 9.585938 -21.542969 L 15.125 -21.542969 C 17.292969 -21.542969 18.960938 -20.167969 18.960938 -18.003906 C 18.960938 -16.042969 17.042969 -14.625 15 -14.625 L 14.167969 -14.625 C 13.210938 -14.625 12.960938 -14.167969 12.960938 -13.417969 L 12.960938 -10.085938 C 12.960938 -8.917969 13.042969 -8.460938 13.417969 -7.960938 L 17.917969 -1.25 C 18.503906 -0.375 19.003906 0 20.003906 0 L 24.917969 0 C 25.710938 0 25.917969 -0.75 25.542969 -1.332031 Z M 25.542969 -1.332031 "/></g></g></g><g fill="rgb(14.509583%, 30.198669%, 33.729553%)" fill-opacity="1"><g transform="translate(2.946978, 340.109201)"><g><path d="M 51.964844 -39.804688 L 45.550781 -39.804688 C 43.738281 -39.804688 43.3125 -38.59375 43.132812 -37.867188 L 37.144531 -17.300781 L 31.273438 -37.867188 C 31.03125 -38.714844 30.609375 -39.804688 29.277344 -39.804688 L 25.042969 -39.804688 C 23.652344 -39.804688 23.230469 -38.714844 22.988281 -37.867188 L 17.179688 -17.300781 L 11.191406 -37.867188 C 10.949219 -38.59375 10.585938 -39.804688 8.773438 -39.804688 L 2.117188 -39.804688 C 1.027344 -39.804688 0.847656 -38.777344 1.027344 -38.050781 L 12.21875 -1.269531 C 12.21875 -1.269531 12.523438 0 13.851562 0 L 19.175781 0 C 20.75 0 21.113281 -1.390625 21.113281 -1.390625 L 27.160156 -20.6875 L 33.210938 -1.390625 C 33.210938 -1.390625 33.574219 0 35.148438 0 L 40.226562 0 C 41.558594 0 41.863281 -1.269531 41.863281 -1.269531 L 52.992188 -38.050781 C 53.234375 -38.777344 53.054688 -39.804688 51.964844 -39.804688 Z M 51.964844 -39.804688 "/></g></g></g><g fill="rgb(14.509583%, 30.198669%, 33.729553%)" fill-opacity="1"><g transform="translate(57.270173, 340.109201)"><g><path d="M 33.332031 -8.46875 L 14.035156 -8.46875 L 14.035156 -16.453125 L 30.246094 -16.453125 C 31.636719 -16.453125 32 -17.121094 32 -18.207031 L 32 -22.925781 C 32 -24.015625 31.636719 -24.679688 30.246094 -24.679688 L 14.035156 -24.679688 L 14.035156 -31.273438 L 32.304688 -31.273438 C 33.695312 -31.273438 34.058594 -31.941406 34.058594 -33.03125 L 34.058594 -38.050781 C 34.058594 -39.140625 33.695312 -39.804688 32.304688 -39.804688 L 6.230469 -39.804688 C 4.839844 -39.804688 4.476562 -39.140625 4.476562 -38.050781 L 4.476562 -1.753906 C 4.476562 -0.664062 4.839844 0 6.230469 0 L 33.332031 0 C 34.722656 0 35.085938 -0.664062 35.085938 -1.753906 L 35.085938 -6.714844 C 35.085938 -7.804688 34.722656 -8.46875 33.332031 -8.46875 Z M 33.332031 -8.46875 "/></g></g></g><g fill="rgb(14.509583%, 30.198669%, 33.729553%)" fill-opacity="1"><g transform="translate(95.199623, 340.109201)"><g><path d="M 32.847656 -20.628906 C 33.390625 -20.871094 37.265625 -22.804688 37.265625 -28.914062 C 37.265625 -34.601562 33.03125 -39.863281 23.167969 -39.863281 L 6.230469 -39.863281 C 4.839844 -39.863281 4.476562 -39.199219 4.476562 -38.109375 L 4.476562 -1.753906 C 4.476562 -0.664062 4.839844 0 6.230469 0 L 24.015625 0 C 32.425781 0 38.414062 -3.933594 38.414062 -11.613281 C 38.414062 -18.148438 33.332031 -20.445312 32.847656 -20.628906 Z M 24.136719 -8.589844 L 13.972656 -8.589844 L 13.972656 -31.335938 L 23.167969 -31.335938 C 26.316406 -31.335938 28.191406 -30.671875 28.191406 -27.949219 C 28.191406 -25.589844 26.675781 -24.320312 23.167969 -24.320312 L 22.382812 -24.320312 C 20.992188 -24.320312 20.628906 -23.652344 20.628906 -22.5625 L 20.628906 -17.964844 C 20.628906 -16.878906 20.992188 -16.210938 22.382812 -16.210938 L 23.773438 -16.210938 C 26.675781 -16.210938 28.792969 -15.367188 28.792969 -12.523438 C 28.792969 -9.800781 27.101562 -8.589844 24.136719 -8.589844 Z M 24.136719 -8.589844 "/></g></g></g><g fill="rgb(14.509583%, 30.198669%, 33.729553%)" fill-opacity="1"><g transform="translate(136.75868, 340.109201)"><g/></g></g><g fill="rgb(14.509583%, 30.198669%, 33.729553%)" fill-opacity="1"><g transform="translate(153.152424, 340.109201)"><g><path d="M 19.78125 -39.804688 L 6.230469 -39.804688 C 4.839844 -39.804688 4.476562 -39.140625 4.476562 -38.050781 L 4.476562 -1.753906 C 4.476562 -0.664062 4.839844 0 6.230469 0 L 19.78125 0 C 26.980469 0 36.054688 -4.113281 36.054688 -13.609375 L 36.054688 -26.195312 C 36.054688 -35.628906 26.980469 -39.804688 19.78125 -39.804688 Z M 26.554688 -25.347656 L 26.554688 -14.457031 C 26.554688 -10.585938 23.773438 -8.410156 19.78125 -8.410156 L 13.972656 -8.410156 L 13.972656 -31.394531 L 19.78125 -31.394531 C 23.773438 -31.394531 26.554688 -29.15625 26.554688 -25.347656 Z M 26.554688 -25.347656 "/></g></g></g><g fill="rgb(14.509583%, 30.198669%, 33.729553%)" fill-opacity="1"><g transform="translate(192.473232, 340.109201)"><g><path d="M 33.332031 -8.46875 L 14.035156 -8.46875 L 14.035156 -16.453125 L 30.246094 -16.453125 C 31.636719 -16.453125 32 -17.121094 32 -18.207031 L 32 -22.925781 C 32 -24.015625 31.636719 -24.679688 30.246094 -24.679688 L 14.035156 -24.679688 L 14.035156 -31.273438 L 32.304688 -31.273438 C 33.695312 -31.273438 34.058594 -31.941406 34.058594 -33.03125 L 34.058594 -38.050781 C 34.058594 -39.140625 33.695312 -39.804688 32.304688 -39.804688 L 6.230469 -39.804688 C 4.839844 -39.804688 4.476562 -39.140625 4.476562 -38.050781 L 4.476562 -1.753906 C 4.476562 -0.664062 4.839844 0 6.230469 0 L 33.332031 0 C 34.722656 0 35.085938 -0.664062 35.085938 -1.753906 L 35.085938 -6.714844 C 35.085938 -7.804688 34.722656 -8.46875 33.332031 -8.46875 Z M 33.332031 -8.46875 "/></g></g></g><g fill="rgb(14.509583%, 30.198669%, 33.729553%)" fill-opacity="1"><g transform="translate(230.402682, 340.109201)"><g><path d="M 23.230469 -23.109375 C 20.808594 -24.078125 11.917969 -25.40625 11.917969 -29.097656 C 11.917969 -31.820312 15.246094 -32.605469 17.242188 -32.605469 C 19.054688 -32.605469 21.234375 -32.0625 22.382812 -30.972656 C 23.109375 -30.246094 23.410156 -29.761719 23.652344 -29.15625 C 23.957031 -28.371094 24.136719 -27.523438 25.285156 -27.523438 L 31.214844 -27.523438 C 32.605469 -27.523438 32.96875 -27.765625 32.96875 -29.21875 C 32.96875 -37.203125 24.558594 -40.710938 16.878906 -40.710938 C 9.316406 -40.410156 2.179688 -36.539062 2.179688 -28.675781 C 2.179688 -20.992188 7.804688 -18.570312 13.914062 -16.636719 C 19.054688 -15.003906 24.4375 -14.941406 24.4375 -11.554688 C 24.4375 -8.167969 21.777344 -7.441406 18.511719 -7.441406 C 16.273438 -7.441406 13.792969 -7.984375 12.582031 -9.4375 C 11.796875 -10.34375 11.492188 -11.128906 11.433594 -11.917969 C 11.3125 -13.429688 10.648438 -13.609375 9.253906 -13.609375 L 3.386719 -13.609375 C 1.996094 -13.609375 1.632812 -13.308594 1.632812 -11.917969 C 1.632812 -3.449219 10.34375 0.90625 17.90625 0.90625 C 27.222656 0.90625 33.996094 -3.207031 33.996094 -11.796875 C 33.996094 -20.023438 27.585938 -21.777344 23.230469 -23.109375 Z M 23.230469 -23.109375 "/></g></g></g><g fill="rgb(14.509583%, 30.198669%, 33.729553%)" fill-opacity="1"><g transform="translate(267.001296, 340.109201)"><g><path d="M 21.777344 -8.289062 L 17.964844 -8.289062 L 17.964844 -31.394531 L 21.597656 -31.394531 C 22.988281 -31.394531 23.351562 -32.0625 23.351562 -33.152344 L 23.351562 -38.050781 C 23.351562 -39.140625 22.988281 -39.804688 21.597656 -39.804688 L 4.777344 -39.804688 C 3.386719 -39.804688 3.023438 -39.140625 3.023438 -38.050781 L 3.023438 -33.152344 C 3.023438 -32.0625 3.386719 -31.394531 4.777344 -31.394531 L 8.46875 -31.394531 L 8.46875 -8.289062 L 4.65625 -8.289062 C 3.265625 -8.289062 2.902344 -7.621094 2.902344 -6.535156 L 2.902344 -1.753906 C 2.902344 -0.664062 3.265625 0 4.65625 0 L 21.777344 0 C 23.167969 0 23.53125 -0.664062 23.53125 -1.753906 L 23.53125 -6.535156 C 23.53125 -7.621094 23.167969 -8.289062 21.777344 -8.289062 Z M 21.777344 -8.289062 "/></g></g></g><g fill="rgb(14.509583%, 30.198669%, 33.729553%)" fill-opacity="1"><g transform="translate(293.860408, 340.109201)"><g><path d="M 34.058594 -22.199219 L 20.808594 -22.199219 C 19.417969 -22.199219 19.054688 -21.535156 19.054688 -20.445312 L 19.054688 -15.726562 C 19.054688 -14.640625 19.417969 -13.972656 20.808594 -13.972656 L 26.253906 -13.972656 C 26.253906 -9.316406 23.472656 -7.5 19.539062 -7.5 C 15.546875 -7.5 12.886719 -9.738281 12.886719 -13.609375 L 12.886719 -25.769531 C 12.886719 -29.640625 15.546875 -32.304688 19.539062 -32.304688 C 23.59375 -32.304688 25.769531 -30.488281 26.4375 -28.613281 C 26.738281 -27.765625 26.496094 -26.554688 28.191406 -26.554688 L 34.058594 -26.554688 C 35.449219 -26.554688 35.8125 -26.796875 35.8125 -28.25 C 35.8125 -36.355469 27.101562 -40.710938 19.539062 -40.710938 C 12.402344 -40.710938 3.265625 -36.660156 3.265625 -27.101562 L 3.265625 -12.21875 C 3.265625 -2.722656 12.402344 0.90625 19.539062 0.90625 C 26.4375 0.90625 35.269531 -2.964844 35.8125 -11.675781 L 35.8125 -20.445312 C 35.8125 -21.535156 35.449219 -22.199219 34.058594 -22.199219 Z M 34.058594 -22.199219 "/></g></g></g><g fill="rgb(14.509583%, 30.198669%, 33.729553%)" fill-opacity="1"><g transform="translate(332.939251, 340.109201)"><g><path d="M 35.027344 -39.804688 L 29.21875 -39.804688 C 28.128906 -39.804688 27.464844 -39.441406 27.464844 -38.050781 L 27.464844 -17.058594 L 14.640625 -37.746094 C 13.851562 -38.957031 13.429688 -39.804688 11.917969 -39.804688 L 6.230469 -39.804688 C 4.839844 -39.804688 4.476562 -39.140625 4.476562 -38.050781 L 4.476562 -1.753906 C 4.476562 -0.363281 5.140625 0 6.230469 0 L 12.21875 0 C 13.308594 0 13.972656 -0.363281 13.972656 -1.753906 L 13.972656 -22.804688 L 26.796875 -2.058594 C 27.585938 -0.847656 28.007812 0 29.519531 0 L 35.027344 0 C 36.417969 0 36.78125 -0.664062 36.78125 -1.753906 L 36.78125 -38.050781 C 36.78125 -39.441406 36.113281 -39.804688 35.027344 -39.804688 Z M 35.027344 -39.804688 "/></g></g></g></svg>