<svg xmlns="http://www.w3.org/2000/svg" xmlns:xlink="http://www.w3.org/1999/xlink" width="500" zoomAndPan="magnify" viewBox="0 0 375 374.999991" height="500" preserveAspectRatio="xMidYMid meet" version="1.0"><defs><g/></defs><path stroke-linecap="butt" transform="matrix(0.00000000000000256, 41.805758, -41.802427, 0.00000000000000256, 20.993523, 0.130107)" fill="none" stroke-linejoin="miter" d="M -0.000028732 0.0000319508 L 4.355307 0.0000319508 " stroke="rgb(96.859741%, 69.799805%, 67.83905%)" stroke-width="1" stroke-opacity="1" stroke-miterlimit="4"/><path stroke-linecap="butt" transform="matrix(41.802427, 0, 0, 41.802427, 2.777915, 161.289599)" fill="none" stroke-linejoin="miter" d="M -0.0000136549 -0.0000128344 L 7.222391 -0.0000128344 " stroke="rgb(96.859741%, 69.799805%, 67.83905%)" stroke-width="1" stroke-opacity="1" stroke-miterlimit="4"/><path stroke-linecap="butt" transform="matrix(-41.830756, -0.000000000000005123, 0.000000000000005119, -41.802427, 372.70744, 20.90121)" fill="none" stroke-linejoin="miter" d="M 0.00000977213 -0.0000271315 L 7.173074 -0.0000271315 " stroke="rgb(79.998779%, 47.44873%, 45.489502%)" stroke-width="1" stroke-opacity="1" stroke-miterlimit="4"/><path stroke-linecap="butt" transform="matrix(41.788972, 0.189355, -0.189414, 41.801997, 0.0947116, 225.186724)" fill="none" stroke-linejoin="miter" d="M -0.0000229268 0.0000186577 L 8.913905 0.00000911334 " stroke="rgb(79.998779%, 47.44873%, 45.489502%)" stroke-width="1" stroke-opacity="1" stroke-miterlimit="4"/><path stroke-linecap="butt" transform="matrix(-41.767756, -0.000000000000005115, 0.000000000000005168, -42.203822, 372.711719, 96.25473)" fill="none" stroke-linejoin="miter" d="M 0.000018716 0.0000195108 L 7.117127 0.0000195108 " stroke="rgb(79.998779%, 47.44873%, 45.489502%)" stroke-width="1" stroke-opacity="1" stroke-miterlimit="4"/><path stroke-linecap="butt" transform="matrix(0.16514, 41.760672, -42.203493, 0.166891, 93.152072, 0.106758)" fill="none" stroke-linejoin="miter" d="M -0.0000308415 -0.00000656012 L 2.803051 0.0000399573 " stroke="rgb(79.998779%, 47.44873%, 45.489502%)" stroke-width="1" stroke-opacity="1" stroke-miterlimit="4"/><path stroke-linecap="butt" transform="matrix(0.000000000000002555, 41.731934, -41.860567, 0.000000000000002563, 352.420412, 75.600494)" fill="none" stroke-linejoin="miter" d="M 0.0000255982 -0.0000349551 L 4.1182 -0.0000349551 " stroke="rgb(79.998779%, 47.44873%, 45.489502%)" stroke-width="1" stroke-opacity="1" stroke-miterlimit="4"/><g fill="rgb(79.998779%, 47.44873%, 45.489502%)" fill-opacity="1"><g transform="translate(6.476272, 285.37786)"><g><path d="M 21.6875 -5.851562 L 9.652344 -5.851562 L 9.652344 -26.28125 C 9.652344 -27.242188 9.191406 -27.492188 8.441406 -27.492188 L 4.304688 -27.492188 C 3.550781 -27.492188 3.09375 -27.242188 3.09375 -26.28125 L 3.09375 -1.210938 C 3.09375 -0.460938 3.34375 0 4.304688 0 L 21.6875 0 C 22.648438 0 22.898438 -0.460938 22.898438 -1.210938 L 22.898438 -4.636719 C 22.898438 -5.390625 22.648438 -5.851562 21.6875 -5.851562 Z M 21.6875 -5.851562 "/></g></g></g><g fill="rgb(79.998779%, 47.44873%, 45.489502%)" fill-opacity="1"><g transform="translate(41.402568, 285.37786)"><g><path d="M 23.648438 -27.492188 L 19.511719 -27.492188 C 18.761719 -27.492188 18.300781 -27.242188 18.300781 -26.28125 L 18.300781 -9.316406 C 18.300781 -6.683594 16.546875 -5.179688 13.789062 -5.179688 C 11.03125 -5.179688 9.316406 -6.683594 9.316406 -9.316406 L 9.316406 -26.28125 C 9.316406 -27.242188 8.859375 -27.492188 8.105469 -27.492188 L 3.96875 -27.492188 C 3.21875 -27.492188 2.757812 -27.242188 2.757812 -26.28125 L 2.757812 -8.398438 C 2.757812 -1.839844 8.816406 0.625 13.789062 0.625 C 18.761719 0.625 24.863281 -1.839844 24.863281 -8.398438 L 24.863281 -26.28125 C 24.863281 -27.242188 24.402344 -27.492188 23.648438 -27.492188 Z M 23.648438 -27.492188 "/></g></g></g><g fill="rgb(79.998779%, 47.44873%, 45.489502%)" fill-opacity="1"><g transform="translate(79.628979, 285.37786)"><g><path d="M 25.988281 -27.492188 L 20.347656 -27.492188 C 19.386719 -27.492188 19.09375 -27.410156 18.257812 -26.492188 L 9.609375 -16.964844 L 9.609375 -26.28125 C 9.609375 -27.242188 9.152344 -27.492188 8.441406 -27.492188 L 4.304688 -27.492188 C 3.511719 -27.492188 3.09375 -27.242188 3.09375 -26.28125 L 3.09375 -1.210938 C 3.09375 -0.25 3.511719 0 4.304688 0 L 8.441406 0 C 9.152344 0 9.609375 -0.25 9.609375 -1.210938 L 9.609375 -8.648438 L 12.199219 -11.363281 C 14.457031 -7.605469 18.175781 -1.335938 18.175781 -1.335938 C 18.71875 -0.460938 19.261719 0 20.265625 0 L 25.363281 0 C 26.15625 0 26.324219 -0.792969 25.988281 -1.335938 L 17.007812 -16.128906 L 26.40625 -26.324219 C 26.785156 -26.699219 26.785156 -27.492188 25.988281 -27.492188 Z M 25.988281 -27.492188 "/></g></g></g><g fill="rgb(79.998779%, 47.44873%, 45.489502%)" fill-opacity="1"><g transform="translate(117.562967, 285.37786)"><g><path d="M 23.023438 -5.851562 L 9.695312 -5.851562 L 9.695312 -11.363281 L 20.890625 -11.363281 C 21.851562 -11.363281 22.105469 -11.824219 22.105469 -12.578125 L 22.105469 -15.835938 C 22.105469 -16.589844 21.851562 -17.046875 20.890625 -17.046875 L 9.695312 -17.046875 L 9.695312 -21.601562 L 22.3125 -21.601562 C 23.273438 -21.601562 23.523438 -22.0625 23.523438 -22.8125 L 23.523438 -26.28125 C 23.523438 -27.035156 23.273438 -27.492188 22.3125 -27.492188 L 4.304688 -27.492188 C 3.34375 -27.492188 3.09375 -27.035156 3.09375 -26.28125 L 3.09375 -1.210938 C 3.09375 -0.460938 3.34375 0 4.304688 0 L 23.023438 0 C 23.984375 0 24.234375 -0.460938 24.234375 -1.210938 L 24.234375 -4.636719 C 24.234375 -5.390625 23.984375 -5.851562 23.023438 -5.851562 Z M 23.023438 -5.851562 "/></g></g></g><g fill="rgb(79.998779%, 47.44873%, 45.489502%)" fill-opacity="1"><g transform="translate(154.369079, 285.37786)"><g><path d="M 16.046875 -15.960938 C 14.375 -16.628906 8.230469 -17.550781 8.230469 -20.097656 C 8.230469 -21.976562 10.53125 -22.523438 11.910156 -22.523438 C 13.160156 -22.523438 14.667969 -22.144531 15.460938 -21.394531 C 15.960938 -20.890625 16.171875 -20.558594 16.335938 -20.140625 C 16.546875 -19.597656 16.671875 -19.011719 17.464844 -19.011719 L 21.558594 -19.011719 C 22.523438 -19.011719 22.773438 -19.179688 22.773438 -20.179688 C 22.773438 -25.695312 16.964844 -28.121094 11.65625 -28.121094 C 6.433594 -27.910156 1.503906 -25.238281 1.503906 -19.804688 C 1.503906 -14.5 5.390625 -12.828125 9.609375 -11.492188 C 13.160156 -10.363281 16.878906 -10.320312 16.878906 -7.980469 C 16.878906 -5.640625 15.042969 -5.140625 12.785156 -5.140625 C 11.238281 -5.140625 9.527344 -5.515625 8.691406 -6.519531 C 8.148438 -7.144531 7.9375 -7.6875 7.898438 -8.230469 C 7.8125 -9.277344 7.355469 -9.402344 6.394531 -9.402344 L 2.339844 -9.402344 C 1.378906 -9.402344 1.128906 -9.191406 1.128906 -8.230469 C 1.128906 -2.382812 7.144531 0.625 12.367188 0.625 C 18.800781 0.625 23.484375 -2.214844 23.484375 -8.148438 C 23.484375 -13.832031 19.054688 -15.042969 16.046875 -15.960938 Z M 16.046875 -15.960938 "/></g></g></g><g fill="rgb(79.998779%, 47.44873%, 45.489502%)" fill-opacity="1"><g transform="translate(190.25617, 285.37786)"><g><path d="M 24.316406 -27.492188 L 20.179688 -27.492188 C 19.429688 -27.492188 18.96875 -27.242188 18.96875 -26.28125 L 18.96875 -16.839844 L 9.652344 -16.839844 L 9.652344 -26.28125 C 9.652344 -27.242188 9.234375 -27.492188 8.441406 -27.492188 L 4.304688 -27.492188 C 3.550781 -27.492188 3.09375 -27.242188 3.09375 -26.28125 L 3.09375 -1.210938 C 3.09375 -0.25 3.550781 0 4.304688 0 L 8.441406 0 C 9.234375 0 9.652344 -0.25 9.652344 -1.210938 L 9.652344 -10.65625 L 18.96875 -10.65625 L 18.96875 -1.210938 C 18.96875 -0.25 19.429688 0 20.179688 0 L 24.316406 0 C 25.070312 0 25.53125 -0.25 25.53125 -1.210938 L 25.53125 -26.28125 C 25.53125 -27.242188 25.070312 -27.492188 24.316406 -27.492188 Z M 24.316406 -27.492188 "/></g></g></g><g fill="rgb(79.998779%, 47.44873%, 45.489502%)" fill-opacity="1"><g transform="translate(229.485151, 285.37786)"><g><path d="M 26.742188 -1.171875 L 17.507812 -26.199219 C 17.132812 -27.074219 16.714844 -27.492188 15.792969 -27.492188 L 11.78125 -27.492188 C 10.863281 -27.492188 10.402344 -27.074219 10.070312 -26.199219 L 0.792969 -1.171875 C 0.585938 -0.667969 0.585938 0 1.503906 0 L 5.890625 0 C 6.8125 0 7.144531 -0.25 7.480469 -1.253906 L 8.648438 -4.554688 L 18.886719 -4.554688 L 20.054688 -1.253906 C 20.390625 -0.25 20.726562 0 21.644531 0 L 26.03125 0 C 26.949219 0 26.949219 -0.667969 26.742188 -1.171875 Z M 13.789062 -19.636719 L 16.921875 -10.402344 L 10.65625 -10.402344 Z M 13.789062 -19.636719 "/></g></g></g><g fill="rgb(79.998779%, 47.44873%, 45.489502%)" fill-opacity="1"><g transform="translate(267.460917, 285.37786)"><g><path d="M 22.269531 -27.492188 L 4.304688 -27.492188 C 3.34375 -27.492188 3.09375 -27.035156 3.09375 -26.28125 L 3.09375 -1.210938 C 3.09375 -0.460938 3.34375 0 4.304688 0 L 8.441406 0 C 9.402344 0 9.652344 -0.167969 9.652344 -1.253906 L 9.652344 -11.03125 L 20.515625 -11.03125 C 21.476562 -11.03125 21.726562 -11.492188 21.726562 -12.242188 L 21.726562 -15.542969 C 21.726562 -16.296875 21.476562 -16.753906 20.515625 -16.753906 L 9.652344 -16.753906 L 9.652344 -21.644531 L 22.269531 -21.644531 C 23.230469 -21.644531 23.484375 -22.105469 23.484375 -22.855469 L 23.484375 -26.28125 C 23.484375 -27.035156 23.230469 -27.492188 22.269531 -27.492188 Z M 22.269531 -27.492188 "/></g></g></g><g fill="rgb(79.998779%, 47.44873%, 45.489502%)" fill-opacity="1"><g transform="translate(303.222692, 285.37786)"><g><path d="M 23.023438 -5.851562 L 9.695312 -5.851562 L 9.695312 -11.363281 L 20.890625 -11.363281 C 21.851562 -11.363281 22.105469 -11.824219 22.105469 -12.578125 L 22.105469 -15.835938 C 22.105469 -16.589844 21.851562 -17.046875 20.890625 -17.046875 L 9.695312 -17.046875 L 9.695312 -21.601562 L 22.3125 -21.601562 C 23.273438 -21.601562 23.523438 -22.0625 23.523438 -22.8125 L 23.523438 -26.28125 C 23.523438 -27.035156 23.273438 -27.492188 22.3125 -27.492188 L 4.304688 -27.492188 C 3.34375 -27.492188 3.09375 -27.035156 3.09375 -26.28125 L 3.09375 -1.210938 C 3.09375 -0.460938 3.34375 0 4.304688 0 L 23.023438 0 C 23.984375 0 24.234375 -0.460938 24.234375 -1.210938 L 24.234375 -4.636719 C 24.234375 -5.390625 23.984375 -5.851562 23.023438 -5.851562 Z M 23.023438 -5.851562 "/></g></g></g><g fill="rgb(79.998779%, 47.44873%, 45.489502%)" fill-opacity="1"><g transform="translate(340.028789, 285.37786)"><g><path d="M 25.613281 -1.335938 L 19.722656 -9.902344 C 22.3125 -10.78125 25.53125 -13.832031 25.53125 -18.21875 C 25.53125 -20.890625 24.652344 -23.273438 23.105469 -24.777344 C 21.351562 -26.53125 19.347656 -27.453125 14.792969 -27.453125 L 4.261719 -27.453125 C 3.300781 -27.453125 3.09375 -26.992188 3.09375 -26.242188 L 3.09375 -1.210938 C 3.09375 -0.25 3.511719 0 4.261719 0 L 8.398438 0 C 9.152344 0 9.609375 -0.25 9.609375 -1.210938 L 9.609375 -21.601562 L 15.167969 -21.601562 C 17.339844 -21.601562 19.011719 -20.222656 19.011719 -18.050781 C 19.011719 -16.085938 17.089844 -14.667969 15.042969 -14.667969 L 14.207031 -14.667969 C 13.246094 -14.667969 12.996094 -14.207031 12.996094 -13.453125 L 12.996094 -10.113281 C 12.996094 -8.941406 13.078125 -8.480469 13.453125 -7.980469 L 17.96875 -1.253906 C 18.550781 -0.375 19.054688 0 20.054688 0 L 24.988281 0 C 25.78125 0 25.988281 -0.753906 25.613281 -1.335938 Z M 25.613281 -1.335938 "/></g></g></g><g fill="rgb(90.19928%, 37.249756%, 36.079407%)" fill-opacity="1"><g transform="translate(2.813231, 340.93997)"><g><path d="M 52.097656 -39.90625 L 45.671875 -39.90625 C 43.851562 -39.90625 43.425781 -38.695312 43.242188 -37.96875 L 37.238281 -17.347656 L 31.355469 -37.96875 C 31.113281 -38.816406 30.6875 -39.90625 29.355469 -39.90625 L 25.109375 -39.90625 C 23.714844 -39.90625 23.289062 -38.816406 23.046875 -37.96875 L 17.226562 -17.347656 L 11.21875 -37.96875 C 10.976562 -38.695312 10.613281 -39.90625 8.792969 -39.90625 L 2.121094 -39.90625 C 1.03125 -39.90625 0.847656 -38.878906 1.03125 -38.148438 L 12.25 -1.273438 C 12.25 -1.273438 12.554688 0 13.890625 0 L 19.226562 0 C 20.804688 0 21.167969 -1.394531 21.167969 -1.394531 L 27.230469 -20.742188 L 33.296875 -1.394531 C 33.296875 -1.394531 33.660156 0 35.238281 0 L 40.332031 0 C 41.667969 0 41.96875 -1.273438 41.96875 -1.273438 L 53.128906 -38.148438 C 53.371094 -38.878906 53.191406 -39.90625 52.097656 -39.90625 Z M 52.097656 -39.90625 "/></g></g></g><g fill="rgb(90.19928%, 37.249756%, 36.079407%)" fill-opacity="1"><g transform="translate(57.270163, 340.93997)"><g><path d="M 33.417969 -8.492188 L 14.070312 -8.492188 L 14.070312 -16.496094 L 30.324219 -16.496094 C 31.71875 -16.496094 32.085938 -17.164062 32.085938 -18.253906 L 32.085938 -22.988281 C 32.085938 -24.078125 31.71875 -24.746094 30.324219 -24.746094 L 14.070312 -24.746094 L 14.070312 -31.355469 L 32.386719 -31.355469 C 33.78125 -31.355469 34.144531 -32.023438 34.144531 -33.117188 L 34.144531 -38.148438 C 34.144531 -39.242188 33.78125 -39.90625 32.386719 -39.90625 L 6.246094 -39.90625 C 4.851562 -39.90625 4.488281 -39.242188 4.488281 -38.148438 L 4.488281 -1.757812 C 4.488281 -0.667969 4.851562 0 6.246094 0 L 33.417969 0 C 34.8125 0 35.175781 -0.667969 35.175781 -1.757812 L 35.175781 -6.730469 C 35.175781 -7.824219 34.8125 -8.492188 33.417969 -8.492188 Z M 33.417969 -8.492188 "/></g></g></g><g fill="rgb(90.19928%, 37.249756%, 36.079407%)" fill-opacity="1"><g transform="translate(95.29299, 340.93997)"><g><path d="M 32.933594 -20.683594 C 33.480469 -20.925781 37.359375 -22.867188 37.359375 -28.992188 C 37.359375 -34.691406 33.117188 -39.96875 23.230469 -39.96875 L 6.246094 -39.96875 C 4.851562 -39.96875 4.488281 -39.300781 4.488281 -38.210938 L 4.488281 -1.757812 C 4.488281 -0.667969 4.851562 0 6.246094 0 L 24.078125 0 C 32.507812 0 38.511719 -3.941406 38.511719 -11.644531 C 38.511719 -18.195312 33.417969 -20.5 32.933594 -20.683594 Z M 24.199219 -8.613281 L 14.011719 -8.613281 L 14.011719 -31.417969 L 23.230469 -31.417969 C 26.382812 -31.417969 28.261719 -30.75 28.261719 -28.019531 C 28.261719 -25.65625 26.746094 -24.382812 23.230469 -24.382812 L 22.441406 -24.382812 C 21.046875 -24.382812 20.683594 -23.714844 20.683594 -22.621094 L 20.683594 -18.011719 C 20.683594 -16.921875 21.046875 -16.253906 22.441406 -16.253906 L 23.835938 -16.253906 C 26.746094 -16.253906 28.871094 -15.40625 28.871094 -12.554688 C 28.871094 -9.824219 27.171875 -8.613281 24.199219 -8.613281 Z M 24.199219 -8.613281 "/></g></g></g><g fill="rgb(90.19928%, 37.249756%, 36.079407%)" fill-opacity="1"><g transform="translate(136.954351, 340.93997)"><g/></g></g><g fill="rgb(90.19928%, 37.249756%, 36.079407%)" fill-opacity="1"><g transform="translate(153.388457, 340.93997)"><g><path d="M 19.832031 -39.90625 L 6.246094 -39.90625 C 4.851562 -39.90625 4.488281 -39.242188 4.488281 -38.148438 L 4.488281 -1.757812 C 4.488281 -0.667969 4.851562 0 6.246094 0 L 19.832031 0 C 27.050781 0 36.148438 -4.125 36.148438 -13.644531 L 36.148438 -26.261719 C 36.148438 -35.722656 27.050781 -39.90625 19.832031 -39.90625 Z M 26.625 -25.414062 L 26.625 -14.496094 C 26.625 -10.613281 23.835938 -8.429688 19.832031 -8.429688 L 14.011719 -8.429688 L 14.011719 -31.476562 L 19.832031 -31.476562 C 23.835938 -31.476562 26.625 -29.234375 26.625 -25.414062 Z M 26.625 -25.414062 "/></g></g></g><g fill="rgb(90.19928%, 37.249756%, 36.079407%)" fill-opacity="1"><g transform="translate(192.806058, 340.93997)"><g><path d="M 33.417969 -8.492188 L 14.070312 -8.492188 L 14.070312 -16.496094 L 30.324219 -16.496094 C 31.71875 -16.496094 32.085938 -17.164062 32.085938 -18.253906 L 32.085938 -22.988281 C 32.085938 -24.078125 31.71875 -24.746094 30.324219 -24.746094 L 14.070312 -24.746094 L 14.070312 -31.355469 L 32.386719 -31.355469 C 33.78125 -31.355469 34.144531 -32.023438 34.144531 -33.117188 L 34.144531 -38.148438 C 34.144531 -39.242188 33.78125 -39.90625 32.386719 -39.90625 L 6.246094 -39.90625 C 4.851562 -39.90625 4.488281 -39.242188 4.488281 -38.148438 L 4.488281 -1.757812 C 4.488281 -0.667969 4.851562 0 6.246094 0 L 33.417969 0 C 34.8125 0 35.175781 -0.667969 35.175781 -1.757812 L 35.175781 -6.730469 C 35.175781 -7.824219 34.8125 -8.492188 33.417969 -8.492188 Z M 33.417969 -8.492188 "/></g></g></g><g fill="rgb(90.19928%, 37.249756%, 36.079407%)" fill-opacity="1"><g transform="translate(230.828885, 340.93997)"><g><path d="M 23.289062 -23.167969 C 20.863281 -24.140625 11.949219 -25.472656 11.949219 -29.171875 C 11.949219 -31.902344 15.285156 -32.691406 17.285156 -32.691406 C 19.105469 -32.691406 21.289062 -32.144531 22.441406 -31.054688 C 23.167969 -30.324219 23.472656 -29.839844 23.714844 -29.234375 C 24.019531 -28.445312 24.199219 -27.597656 25.351562 -27.597656 L 31.296875 -27.597656 C 32.691406 -27.597656 33.054688 -27.839844 33.054688 -29.292969 C 33.054688 -37.300781 24.625 -40.816406 16.921875 -40.816406 C 9.339844 -40.515625 2.183594 -36.632812 2.183594 -28.75 C 2.183594 -21.046875 7.824219 -18.621094 13.949219 -16.679688 C 19.105469 -15.042969 24.503906 -14.980469 24.503906 -11.585938 C 24.503906 -8.1875 21.835938 -7.460938 18.558594 -7.460938 C 16.316406 -7.460938 13.828125 -8.007812 12.617188 -9.460938 C 11.828125 -10.371094 11.523438 -11.160156 11.464844 -11.949219 C 11.339844 -13.464844 10.675781 -13.644531 9.28125 -13.644531 L 3.394531 -13.644531 C 2 -13.644531 1.636719 -13.34375 1.636719 -11.949219 C 1.636719 -3.457031 10.371094 0.910156 17.953125 0.910156 C 27.292969 0.910156 34.085938 -3.214844 34.085938 -11.828125 C 34.085938 -20.074219 27.65625 -21.835938 23.289062 -23.167969 Z M 23.289062 -23.167969 "/></g></g></g><g fill="rgb(90.19928%, 37.249756%, 36.079407%)" fill-opacity="1"><g transform="translate(267.517589, 340.93997)"><g><path d="M 21.835938 -8.308594 L 18.011719 -8.308594 L 18.011719 -31.476562 L 21.652344 -31.476562 C 23.046875 -31.476562 23.410156 -32.144531 23.410156 -33.238281 L 23.410156 -38.148438 C 23.410156 -39.242188 23.046875 -39.90625 21.652344 -39.90625 L 4.792969 -39.90625 C 3.394531 -39.90625 3.03125 -39.242188 3.03125 -38.148438 L 3.03125 -33.238281 C 3.03125 -32.144531 3.394531 -31.476562 4.792969 -31.476562 L 8.492188 -31.476562 L 8.492188 -8.308594 L 4.671875 -8.308594 C 3.273438 -8.308594 2.910156 -7.640625 2.910156 -6.550781 L 2.910156 -1.757812 C 2.910156 -0.667969 3.273438 0 4.671875 0 L 21.835938 0 C 23.230469 0 23.59375 -0.667969 23.59375 -1.757812 L 23.59375 -6.550781 C 23.59375 -7.640625 23.230469 -8.308594 21.835938 -8.308594 Z M 21.835938 -8.308594 "/></g></g></g><g fill="rgb(90.19928%, 37.249756%, 36.079407%)" fill-opacity="1"><g transform="translate(294.442841, 340.93997)"><g><path d="M 34.144531 -22.257812 L 20.863281 -22.257812 C 19.46875 -22.257812 19.105469 -21.589844 19.105469 -20.5 L 19.105469 -15.769531 C 19.105469 -14.675781 19.46875 -14.011719 20.863281 -14.011719 L 26.324219 -14.011719 C 26.324219 -9.339844 23.53125 -7.519531 19.589844 -7.519531 C 15.585938 -7.519531 12.917969 -9.765625 12.917969 -13.644531 L 12.917969 -25.835938 C 12.917969 -29.71875 15.585938 -32.386719 19.589844 -32.386719 C 23.652344 -32.386719 25.835938 -30.566406 26.503906 -28.6875 C 26.808594 -27.839844 26.566406 -26.625 28.261719 -26.625 L 34.144531 -26.625 C 35.542969 -26.625 35.90625 -26.867188 35.90625 -28.324219 C 35.90625 -36.449219 27.171875 -40.816406 19.589844 -40.816406 C 12.433594 -40.816406 3.273438 -36.753906 3.273438 -27.171875 L 3.273438 -12.25 C 3.273438 -2.730469 12.433594 0.910156 19.589844 0.910156 C 26.503906 0.910156 35.359375 -2.972656 35.90625 -11.707031 L 35.90625 -20.5 C 35.90625 -21.589844 35.542969 -22.257812 34.144531 -22.257812 Z M 34.144531 -22.257812 "/></g></g></g><g fill="rgb(90.19928%, 37.249756%, 36.079407%)" fill-opacity="1"><g transform="translate(333.617873, 340.93997)"><g><path d="M 35.117188 -39.90625 L 29.292969 -39.90625 C 28.203125 -39.90625 27.535156 -39.542969 27.535156 -38.148438 L 27.535156 -17.101562 L 14.675781 -37.847656 C 13.890625 -39.058594 13.464844 -39.90625 11.949219 -39.90625 L 6.246094 -39.90625 C 4.851562 -39.90625 4.488281 -39.242188 4.488281 -38.148438 L 4.488281 -1.757812 C 4.488281 -0.363281 5.15625 0 6.246094 0 L 12.25 0 C 13.34375 0 14.011719 -0.363281 14.011719 -1.757812 L 14.011719 -22.867188 L 26.867188 -2.0625 C 27.65625 -0.847656 28.082031 0 29.597656 0 L 35.117188 0 C 36.511719 0 36.875 -0.667969 36.875 -1.757812 L 36.875 -38.148438 C 36.875 -39.542969 36.207031 -39.90625 35.117188 -39.90625 Z M 35.117188 -39.90625 "/></g></g></g></svg>