<svg xmlns="http://www.w3.org/2000/svg" xmlns:xlink="http://www.w3.org/1999/xlink" width="500" zoomAndPan="magnify"
    viewBox="0 0 375 250" height="500" preserveAspectRatio="xMidYMid meet" version="1.0">
    <defs>
        <g />
    </defs>
    <path stroke-linecap="butt"
        transform="matrix(0, 42, -42, 0, 21, 0)"
        fill="none" stroke-linejoin="miter" d="M 0 0 L 4 0 "
        stroke="rgb(15.289307%, 50.19989%, 58.039856%)" stroke-width="1" stroke-opacity="1" stroke-miterlimit="4" />
    <path stroke-linecap="butt" transform="matrix(42, 0, 0, 42, 0, 163)" fill="none"
        stroke-linejoin="miter" d="M 0 0 L 7 0 "
        stroke="rgb(15.289307%, 50.19989%, 58.039856%)" stroke-width="1" stroke-opacity="1" stroke-miterlimit="4" />
    <path stroke-linecap="butt"
        transform="matrix(-42, 0, 0, -42, 375, 21)"
        fill="none" stroke-linejoin="miter" d="M 0 0 L 7 0 "
        stroke="rgb(49.01886%, 50.979614%, 72.158813%)" stroke-width="1" stroke-opacity="1" stroke-miterlimit="4" />
    <path stroke-linecap="butt" transform="matrix(42, 0, 0, 42, 0, 225)"
        fill="none" stroke-linejoin="miter" d="M 0 0 L 9 0 "
        stroke="rgb(49.01886%, 50.979614%, 72.158813%)" stroke-width="1" stroke-opacity="1" stroke-miterlimit="4" />
    <path stroke-linecap="butt"
        transform="matrix(-42, 0, 0, -42, 372, 96)"
        fill="none" stroke-linejoin="miter" d="M 0 0 L 7 0 "
        stroke="rgb(49.01886%, 50.979614%, 72.158813%)" stroke-width="1" stroke-opacity="1" stroke-miterlimit="4" />
    <path stroke-linecap="butt" transform="matrix(0, 39, -42, 0, 93, 0)"
        fill="none" stroke-linejoin="miter" d="M 0 0 L 3 0 "
        stroke="rgb(49.01886%, 50.979614%, 72.158813%)" stroke-width="1" stroke-opacity="1" stroke-miterlimit="4" />
    <path stroke-linecap="butt"
        transform="matrix(0, 42, -42, 0, 354, 75)"
        fill="none" stroke-linejoin="miter" d="M 0 0 L 4 0 "
        stroke="rgb(49.01886%, 50.979614%, 72.158813%)" stroke-width="1" stroke-opacity="1" stroke-miterlimit="4" />
    
</svg>